<svg width="255" height="28" viewBox="0 0 255 28" fill="none" xmlns="http://www.w3.org/2000/svg">
<g clip-path="url(#clip0_2_1623)">
<path d="M37.6083 27.5388C37.2786 27.5388 37.0646 27.4116 36.9663 27.1571C36.868 26.9026 36.8159 26.6019 36.8159 26.2491V9.28616C36.8159 8.9565 36.8391 8.77143 36.8853 8.72517C36.9316 8.6789 37.1167 8.65576 37.4463 8.65576H42.3623C43.9412 8.65576 45.4044 8.69625 46.7404 8.783C48.0763 8.86975 49.2504 9.08952 50.2567 9.44231C51.263 9.80089 52.0438 10.3735 52.5932 11.1716C53.1485 11.9697 53.4261 13.0859 53.4261 14.5202C53.4261 15.5497 53.2121 16.3998 52.7841 17.0707C52.3561 17.7416 51.7893 18.2737 51.0838 18.6554C50.3782 19.0371 49.6032 19.3205 48.7646 19.494C47.9202 19.6675 47.0874 19.7716 46.2661 19.8063L52.5007 26.3648C52.6916 26.5556 52.7899 26.758 52.7899 26.972C52.7899 27.3422 52.599 27.533 52.2115 27.533C52.0959 27.533 51.9686 27.5041 51.824 27.4405C51.6795 27.3769 51.5349 27.2728 51.4018 27.1282L44.6063 19.8757H38.2676V26.2491C38.2676 26.5788 38.2271 26.8737 38.1461 27.1398C38.0652 27.4058 37.8916 27.5388 37.6198 27.5388H37.6083ZM38.2502 18.7595H44.6063C45.9191 18.7595 47.1336 18.667 48.2499 18.4819C49.3661 18.2968 50.2683 17.8978 50.9507 17.2963C51.6332 16.6948 51.9744 15.7694 51.9744 14.526C51.9744 13.0223 51.6101 11.9408 50.8756 11.2815C50.1411 10.6221 49.0595 10.2057 47.631 10.038C46.2025 9.87029 44.4443 9.78354 42.3507 9.78354H38.2502V18.7653V18.7595Z" fill="#55504A"/>
<path d="M52.2004 27.6831C52.0674 27.6831 51.917 27.6484 51.7551 27.579C51.5874 27.5096 51.4312 27.3939 51.2809 27.232L44.5315 20.0258H38.4011V26.2546C38.4011 26.5958 38.3606 26.9081 38.2738 27.1857C38.1755 27.5154 37.9442 27.6889 37.6087 27.6889C37.1229 27.6889 36.9147 27.4344 36.828 27.2147C36.7181 26.9428 36.666 26.619 36.666 26.2546V9.29166C36.666 8.83477 36.7065 8.69597 36.7759 8.63235C36.8453 8.56873 36.9783 8.52246 37.4352 8.52246H42.3512C43.9301 8.52246 45.4048 8.56295 46.7408 8.6497C48.0884 8.73645 49.2798 8.96201 50.2977 9.32058C51.3271 9.68494 52.1368 10.2864 52.7036 11.1019C53.2704 11.9174 53.5595 13.0741 53.5595 14.5315C53.5595 15.5841 53.334 16.469 52.8944 17.1572C52.4549 17.8454 51.865 18.3949 51.1363 18.7881C50.4191 19.1756 49.6268 19.4648 48.7766 19.6441C48.0363 19.8002 47.296 19.8986 46.5673 19.9448L52.5879 26.272C52.8019 26.4859 52.9176 26.7288 52.9176 26.9833C52.9176 27.4344 52.6631 27.6889 52.1946 27.6889L52.2004 27.6831ZM38.1119 19.7366H44.6588L51.4948 27.0354C51.6163 27.1684 51.7435 27.2609 51.8708 27.313C51.998 27.365 52.1137 27.3939 52.2062 27.3939C52.507 27.3939 52.64 27.2725 52.64 26.9775C52.64 26.804 52.559 26.6363 52.3971 26.4686L45.9369 19.6788L46.255 19.6672C47.0705 19.6325 47.9033 19.5284 48.7303 19.3549C49.5516 19.1814 50.3208 18.9038 51.009 18.5337C51.6915 18.1635 52.2467 17.6488 52.6573 17.001C53.0679 16.3533 53.2762 15.5263 53.2762 14.5315C53.2762 13.1319 53.0043 12.0388 52.4723 11.2696C51.9402 10.5004 51.1768 9.93941 50.2051 9.59241C49.2162 9.2454 48.0479 9.02562 46.7293 8.93887C45.3991 8.85212 43.9301 8.81163 42.357 8.81163H37.441C37.146 8.81163 37.0304 8.82899 36.9899 8.84055C36.9783 8.88104 36.961 8.99671 36.961 9.29166V26.2546C36.961 26.5843 37.0072 26.8734 37.1056 27.1048C37.1576 27.232 37.2617 27.3939 37.6145 27.3939C37.8227 27.3939 37.9384 27.3014 38.002 27.099C38.0772 26.8445 38.1119 26.5611 38.1119 26.2488V19.7308V19.7366ZM44.6125 18.9096H38.1119V9.63867H42.357C44.4448 9.63867 46.2261 9.72543 47.6546 9.89315C49.1063 10.0667 50.2225 10.4946 50.9801 11.1771C51.7435 11.8653 52.131 12.9931 52.131 14.5315C52.131 15.8096 51.7725 16.7813 51.0553 17.4117C50.3555 18.0305 49.4186 18.4411 48.2792 18.632C47.1572 18.817 45.9254 18.9154 44.6125 18.9154V18.9096ZM38.4011 18.6204H44.6125C45.908 18.6204 47.1283 18.5279 48.233 18.3428C49.3203 18.1635 50.2051 17.776 50.8644 17.1919C51.5122 16.6193 51.8419 15.7229 51.8419 14.5315C51.8419 13.0798 51.4891 12.0215 50.7893 11.3968C50.0837 10.7607 49.0137 10.35 47.6257 10.1881C46.2087 10.0204 44.439 9.93363 42.3627 9.93363H38.4068V18.6262L38.4011 18.6204Z" fill="#55504A"/>
<path d="M56.9259 27.7066C56.5963 27.7066 56.417 27.5562 56.3823 27.2555C56.3476 26.9548 56.4112 26.6656 56.5673 26.3822L65.9019 9.52336C66.0812 9.1937 66.2257 8.96815 66.3241 8.84669C66.4282 8.72524 66.5785 8.66162 66.781 8.66162C66.9371 8.66162 67.0817 8.71946 67.2032 8.84091C67.3246 8.96236 67.4808 9.18792 67.66 9.52914L77.0119 26.4053C77.1334 26.6193 77.197 26.8391 77.197 27.0646C77.197 27.4926 77.0061 27.7066 76.6187 27.7066C76.4741 27.7066 76.3179 27.6546 76.1618 27.5447C76.0056 27.4348 75.8437 27.2439 75.6875 26.9605L72.8073 21.7438H60.743L57.8281 27.0299C57.591 27.4811 57.2845 27.7066 56.9143 27.7066H56.9259ZM61.2462 20.7433H72.3273L66.7867 10.628L61.2462 20.7433Z" fill="#55504A"/>
<path d="M76.6299 27.8517C76.4564 27.8517 76.2714 27.788 76.0921 27.6666C75.9128 27.5451 75.7451 27.3369 75.5716 27.0304L72.7319 21.8831H60.841L57.9667 27.094C57.7064 27.5914 57.3536 27.8459 56.9256 27.8459C56.5266 27.8459 56.2837 27.6435 56.2374 27.2675C56.2027 26.9379 56.2663 26.614 56.4398 26.3075L65.7743 9.44864C65.9594 9.11899 66.104 8.88186 66.2139 8.74884C66.3469 8.59269 66.5378 8.51172 66.7807 8.51172C66.9773 8.51172 67.1508 8.5869 67.3012 8.73149C67.44 8.86451 67.5961 9.09585 67.787 9.45443L77.1389 26.3306C77.2719 26.5619 77.3413 26.8106 77.3413 27.0593C77.3413 27.5683 77.0868 27.8459 76.6184 27.8459L76.6299 27.8517ZM60.6675 21.5997H72.8996L75.8202 26.8916C75.9648 27.1519 76.1094 27.3312 76.2482 27.4237C76.3812 27.5162 76.5085 27.5625 76.6241 27.5625C76.8381 27.5625 77.0579 27.5047 77.0579 27.0651C77.0579 26.8685 77.0001 26.6661 76.8902 26.4752L67.5383 9.59901C67.3648 9.27514 67.2202 9.05537 67.1045 8.94548C67.0062 8.85294 66.9021 8.80668 66.7807 8.80668C66.6245 8.80668 66.5089 8.85294 66.4337 8.9397C66.3353 9.06115 66.1965 9.28092 66.023 9.59323L56.6885 26.4521C56.5439 26.7123 56.4861 26.9668 56.5208 27.2386C56.5439 27.4642 56.6654 27.5567 56.9198 27.5567C57.2379 27.5567 57.4924 27.3601 57.7064 26.9552L60.6617 21.5939L60.6675 21.5997ZM72.5699 20.8884H61.003L66.7865 10.3277L72.5699 20.8884ZM61.4888 20.5992H72.0841L66.7865 10.9292L61.4888 20.5992Z" fill="#55504A"/>
<path d="M80.8815 27.5393C80.6096 27.5393 80.3378 27.5219 80.0602 27.4872C79.7826 27.4525 79.6438 27.2733 79.6438 26.9436C79.6438 26.6602 79.7768 26.5041 80.0429 26.4694C80.3089 26.4347 80.5865 26.4173 80.8815 26.4173H86.931V9.77825H80.8815C80.5865 9.77825 80.3089 9.7609 80.0429 9.72619C79.7768 9.69149 79.6438 9.53534 79.6438 9.25195C79.6438 8.92229 79.7826 8.743 80.0602 8.7083C80.3378 8.6736 80.6096 8.65625 80.8815 8.65625H94.4206C94.7502 8.65625 95.0336 8.6736 95.2765 8.7083C95.5194 8.743 95.6409 8.91072 95.6409 9.21725C95.6409 9.52377 95.5194 9.69149 95.2765 9.72619C95.0336 9.7609 94.7502 9.77825 94.4206 9.77825H88.3711V26.4173H94.4206C94.7502 26.4173 95.0336 26.4347 95.2765 26.4694C95.5194 26.5041 95.6409 26.6718 95.6409 26.9783C95.6409 27.2848 95.5194 27.4525 95.2765 27.4872C95.0336 27.5219 94.7502 27.5393 94.4206 27.5393H80.8815Z" fill="#55504A"/>
<path d="M94.4204 27.6835H80.8813C80.6037 27.6835 80.3261 27.6661 80.0427 27.6314C79.8402 27.6083 79.499 27.4868 79.499 26.9432C79.499 26.5904 79.6841 26.3706 80.0253 26.3243C80.2971 26.2896 80.5863 26.2723 80.8813 26.2723H86.7862V9.9224H80.8813C80.5805 9.9224 80.2914 9.90505 80.0253 9.87035C79.6899 9.82986 79.499 9.61009 79.499 9.25152C79.499 8.71365 79.8402 8.5922 80.0427 8.56328C80.3261 8.52858 80.6037 8.51123 80.8813 8.51123H94.4204C94.7501 8.51123 95.045 8.52858 95.2937 8.56328C95.4788 8.58642 95.7853 8.70787 95.7853 9.21682C95.7853 9.72576 95.4788 9.84143 95.2937 9.87035C95.045 9.90505 94.7501 9.9224 94.4204 9.9224H88.5155V26.2723H94.4204C94.7501 26.2723 95.045 26.2896 95.2937 26.3243C95.4788 26.3475 95.7853 26.4689 95.7853 26.9779C95.7853 27.4868 95.4788 27.6025 95.2937 27.6314C95.045 27.6661 94.7501 27.6835 94.4204 27.6835ZM80.8813 26.5672C80.5921 26.5672 80.3203 26.5846 80.06 26.6193C79.8692 26.6424 79.7882 26.7407 79.7882 26.949C79.7882 27.267 79.9328 27.3307 80.0774 27.348C80.3492 27.3827 80.6152 27.4001 80.8813 27.4001H94.4204C94.7385 27.4001 95.0219 27.3827 95.2532 27.348C95.3747 27.3307 95.4903 27.2728 95.4903 26.9837C95.4903 26.6945 95.3689 26.6366 95.2532 26.6193C95.0161 26.5846 94.7385 26.5672 94.4204 26.5672H88.2263V9.63901H94.4204C94.7385 9.63901 95.0219 9.62166 95.2532 9.58696C95.3747 9.56961 95.4903 9.51177 95.4903 9.2226C95.4903 8.93343 95.3689 8.87559 95.2532 8.85824C95.0161 8.82354 94.7385 8.80619 94.4204 8.80619H80.8813C80.6152 8.80619 80.3492 8.82354 80.0774 8.85824C79.9328 8.87559 79.7882 8.93921 79.7882 9.2573C79.7882 9.4655 79.8692 9.56382 80.06 9.58696C80.3203 9.62166 80.5921 9.63901 80.8813 9.63901H87.0754V26.5672H80.8813Z" fill="#55504A"/>
<path d="M111.129 27.8744C109.527 27.8744 107.942 27.7703 106.375 27.5679C104.807 27.3655 103.425 27.1168 102.222 26.8218C101.019 26.5269 100.146 26.2551 99.6024 26.0064C99.2958 25.8618 99.1455 25.642 99.1455 25.3471C99.1455 25.0174 99.29 24.8555 99.585 24.8555C99.666 24.8555 99.7412 24.8728 99.8221 24.9075C100.412 25.1446 101.32 25.4049 102.552 25.6941C103.784 25.9832 105.178 26.2319 106.728 26.4401C108.283 26.6483 109.833 26.7524 111.378 26.7524C112.922 26.7524 114.269 26.6136 115.553 26.336C116.837 26.0584 117.867 25.5957 118.647 24.9364C119.428 24.2771 119.816 23.3865 119.816 22.2587C119.816 21.368 119.521 20.6682 118.937 20.1651C118.347 19.6619 117.56 19.286 116.565 19.0373C115.571 18.7886 114.454 18.6151 113.217 18.511C111.979 18.4069 110.701 18.3317 109.376 18.2796C108.052 18.2276 106.774 18.1408 105.536 18.0194C104.299 17.8979 103.182 17.6839 102.188 17.3948C101.193 17.0998 100.4 16.6603 99.8163 16.0704C99.2264 15.4804 98.9373 14.6997 98.9373 13.7165C98.9373 12.6292 99.2264 11.7385 99.8106 11.0329C100.395 10.3274 101.175 9.77215 102.159 9.37309C103.142 8.97403 104.241 8.69064 105.461 8.53449C106.681 8.37833 107.931 8.29736 109.203 8.29736C110.603 8.29736 111.967 8.37833 113.286 8.54027C114.61 8.70221 115.796 8.9162 116.843 9.17645C117.895 9.43671 118.705 9.70275 119.284 9.97457C119.463 10.0555 119.555 10.2059 119.555 10.4315C119.555 10.5876 119.503 10.738 119.393 10.871C119.284 11.004 119.139 11.0734 118.942 11.0734C118.827 11.0734 118.734 11.0503 118.653 11.004C117.468 10.5067 116.033 10.1192 114.35 9.83577C112.667 9.55238 110.973 9.41357 109.267 9.41357C107.705 9.41357 106.253 9.54081 104.894 9.78372C103.541 10.0324 102.448 10.4604 101.615 11.0734C100.782 11.6865 100.372 12.5309 100.372 13.6124C100.372 14.3931 100.667 14.9946 101.251 15.4284C101.841 15.8564 102.627 16.1745 103.622 16.3884C104.617 16.5967 105.733 16.747 106.971 16.828C108.208 16.909 109.486 16.9899 110.811 17.0651C112.135 17.1403 113.413 17.256 114.651 17.4121C115.889 17.5683 117.005 17.8227 118 18.1755C118.994 18.5283 119.787 19.0257 120.371 19.685C120.961 20.3386 121.25 21.2003 121.25 22.2587C121.25 23.317 120.972 24.2482 120.411 24.9711C119.85 25.6941 119.093 26.2666 118.133 26.6888C117.173 27.111 116.085 27.4118 114.882 27.5968C113.674 27.7761 112.419 27.8686 111.123 27.8686L111.129 27.8744Z" fill="#55504A"/>
<path d="M111.129 28.0191C109.527 28.0191 107.919 27.915 106.358 27.7126C104.796 27.5101 103.397 27.2557 102.194 26.9665C100.985 26.6715 100.1 26.3939 99.5508 26.1452C99.198 25.9717 99.0071 25.6999 99.0071 25.3529C99.0071 24.9423 99.2153 24.7167 99.5912 24.7167C99.6896 24.7167 99.7879 24.7399 99.8862 24.7803C100.459 25.0117 101.373 25.2777 102.593 25.5611C103.813 25.8445 105.213 26.099 106.757 26.3014C108.295 26.5096 109.857 26.6137 111.39 26.6137C112.922 26.6137 114.27 26.4749 115.536 26.2031C116.791 25.9313 117.809 25.4744 118.567 24.8382C119.307 24.2136 119.683 23.3518 119.683 22.2703C119.683 21.4259 119.405 20.7608 118.85 20.2866C118.283 19.8008 117.503 19.4306 116.537 19.1877C115.554 18.9448 114.437 18.7655 113.211 18.6672C111.985 18.5689 110.696 18.4879 109.383 18.4417C108.064 18.3896 106.769 18.3029 105.537 18.1756C104.293 18.0484 103.16 17.8402 102.165 17.5452C101.153 17.2445 100.332 16.7876 99.73 16.1861C99.1286 15.5846 98.8047 14.746 98.8047 13.7281C98.8047 12.6119 99.1112 11.6808 99.7127 10.9521C100.308 10.2291 101.118 9.65656 102.119 9.25171C103.108 8.84687 104.23 8.56348 105.456 8.40154C108.012 8.07188 110.788 8.09502 113.321 8.40733C114.64 8.56926 115.843 8.78325 116.895 9.04351C117.954 9.30376 118.781 9.57559 119.365 9.84741C119.527 9.91681 119.718 10.0787 119.718 10.4373C119.718 10.6282 119.654 10.8075 119.527 10.9694C119.394 11.1429 119.203 11.2297 118.966 11.2297C118.827 11.2297 118.706 11.2007 118.607 11.1429C117.451 10.6629 116.016 10.2696 114.351 9.992C112.679 9.71439 110.979 9.5698 109.29 9.5698C107.746 9.5698 106.289 9.69704 104.947 9.93995C103.622 10.1829 102.535 10.605 101.725 11.2007C100.927 11.7849 100.54 12.583 100.54 13.624C100.54 14.3643 100.806 14.9137 101.361 15.3186C101.928 15.735 102.709 16.0473 103.68 16.2497C104.663 16.4579 105.78 16.6025 107.006 16.6893C108.238 16.776 109.527 16.8512 110.84 16.9264C112.159 17.0016 113.454 17.1172 114.686 17.2734C115.93 17.4295 117.063 17.6898 118.064 18.0426C119.076 18.4012 119.897 18.9217 120.493 19.5926C121.1 20.275 121.412 21.1715 121.412 22.2645C121.412 23.3576 121.117 24.3177 120.545 25.0637C119.972 25.804 119.186 26.3939 118.208 26.8277C117.242 27.2557 116.132 27.5622 114.917 27.7473C113.703 27.9266 112.431 28.0191 111.135 28.0191H111.129ZM99.5912 25.0059C99.412 25.0059 99.2963 25.0637 99.2963 25.3529C99.2963 25.59 99.4177 25.7578 99.6722 25.885C100.199 26.1279 101.072 26.3997 102.263 26.6889C103.455 26.9781 104.848 27.2325 106.398 27.4292C109.198 27.7935 112.182 27.8629 114.871 27.4639C116.063 27.2846 117.144 26.9839 118.087 26.5674C119.018 26.1568 119.77 25.59 120.308 24.8902C120.846 24.1962 121.117 23.3171 121.117 22.2703C121.117 21.2235 120.834 20.4138 120.273 19.7892C119.706 19.153 118.925 18.6614 117.96 18.3202C116.982 17.9732 115.866 17.7187 114.646 17.5626C113.42 17.4064 112.13 17.2907 110.817 17.2156C109.498 17.1404 108.209 17.0652 106.977 16.9784C105.739 16.8917 104.606 16.7471 103.611 16.5331C102.599 16.3191 101.783 15.9895 101.182 15.5499C100.557 15.093 100.239 14.4453 100.239 13.6182C100.239 12.4905 100.679 11.594 101.546 10.9578C102.39 10.339 103.512 9.89368 104.883 9.64499C106.242 9.3963 107.723 9.26906 109.279 9.26906C110.985 9.26906 112.702 9.41365 114.385 9.69704C116.074 9.98043 117.532 10.3737 118.723 10.8769C118.792 10.9174 118.868 10.9347 118.954 10.9347C119.105 10.9347 119.209 10.8884 119.29 10.7843C119.377 10.6744 119.417 10.5588 119.417 10.4315C119.417 10.2176 119.319 10.1424 119.232 10.1077C118.665 9.84163 117.855 9.57559 116.814 9.32111C115.773 9.06664 114.582 8.85265 113.275 8.69071C110.765 8.37841 108.018 8.35527 105.485 8.68493C104.282 8.84109 103.183 9.11869 102.217 9.51197C101.263 9.89946 100.493 10.4489 99.9267 11.1313C99.3715 11.808 99.0881 12.6813 99.0881 13.7223C99.0881 14.6593 99.3715 15.4169 99.9267 15.9779C100.493 16.5447 101.268 16.9784 102.24 17.2618C103.223 17.551 104.339 17.7592 105.56 17.8864C106.786 18.0079 108.076 18.1004 109.388 18.1467C110.707 18.1987 111.997 18.2739 113.234 18.378C114.472 18.4821 115.606 18.6556 116.606 18.9101C117.618 19.1646 118.434 19.5521 119.035 20.0668C119.654 20.5989 119.966 21.3392 119.966 22.2703C119.966 23.4386 119.556 24.3755 118.746 25.058C117.954 25.7231 116.89 26.2031 115.594 26.4865C114.31 26.7641 112.893 26.9029 111.39 26.9029C109.886 26.9029 108.272 26.7988 106.716 26.5906C105.167 26.3824 103.755 26.1279 102.523 25.8445C101.292 25.5553 100.366 25.2893 99.7763 25.0522C99.7127 25.0233 99.6549 25.0117 99.5912 25.0117V25.0059Z" fill="#55504A"/>
<path d="M125.651 27.539C125.437 27.539 125.31 27.5043 125.269 27.4349C125.229 27.3655 125.211 27.2035 125.211 26.9433V9.45982C125.211 9.13016 125.234 8.91617 125.281 8.81785C125.327 8.71953 125.512 8.66748 125.842 8.66748H141.312C141.642 8.66748 141.931 8.68483 142.186 8.71953C142.44 8.75423 142.567 8.93352 142.567 9.26318C142.567 9.54657 142.44 9.70272 142.186 9.73742C141.931 9.77213 141.642 9.78948 141.312 9.78948H126.657V17.2097H141.231C141.48 17.2097 141.688 17.2444 141.856 17.3138C142.024 17.3832 142.111 17.5278 142.111 17.7533C142.111 18.002 142.041 18.1639 141.897 18.2449C141.752 18.3259 141.573 18.3664 141.347 18.3664H126.657V26.4343H141.347C141.677 26.4343 141.966 26.4517 142.22 26.4864C142.475 26.5211 142.602 26.6772 142.602 26.9606C142.602 27.2903 142.498 27.4638 142.29 27.4927C142.082 27.5216 141.81 27.539 141.486 27.5505H125.662L125.651 27.539Z" fill="#55504A"/>
<path d="M125.651 27.6836C125.373 27.6836 125.217 27.6316 125.147 27.5101C125.113 27.4465 125.066 27.325 125.066 26.9433V9.45987C125.066 8.99141 125.113 8.83526 125.147 8.76007C125.223 8.59235 125.437 8.52295 125.841 8.52295H141.312C141.648 8.52295 141.943 8.5403 142.203 8.575C142.394 8.59813 142.712 8.72537 142.712 9.26324C142.712 9.61603 142.533 9.8358 142.203 9.88207C141.943 9.91677 141.642 9.93412 141.312 9.93412H126.801V17.0651H141.231C141.497 17.0651 141.729 17.1056 141.914 17.175C142.07 17.2386 142.261 17.389 142.261 17.7476C142.261 18.0541 142.162 18.2565 141.977 18.3664C141.815 18.459 141.607 18.5052 141.353 18.5052H126.807V26.284H141.353C141.688 26.284 141.983 26.3014 142.243 26.3361C142.567 26.3823 142.752 26.6021 142.752 26.9549C142.752 27.4638 142.515 27.6026 142.313 27.6316C142.099 27.6605 141.827 27.6778 141.491 27.6894H125.662L125.651 27.6836ZM125.396 27.3655C125.396 27.3655 125.454 27.3944 125.651 27.3944H141.474C141.792 27.3829 142.058 27.3655 142.261 27.3366C142.313 27.3308 142.446 27.3135 142.446 26.9491C142.446 26.6888 142.324 26.6368 142.191 26.6194C141.943 26.5847 141.659 26.5674 141.335 26.5674H126.501V18.2103H141.335C141.538 18.2103 141.7 18.1756 141.815 18.112C141.908 18.0599 141.954 17.9384 141.954 17.7476C141.954 17.5336 141.867 17.47 141.792 17.4411C141.642 17.3775 141.445 17.3485 141.22 17.3485H126.501V9.63916H141.301C141.619 9.63916 141.908 9.62181 142.157 9.58711C142.29 9.56976 142.411 9.51771 142.411 9.25745C142.411 8.93358 142.284 8.87574 142.157 8.85839C141.908 8.82369 141.624 8.80634 141.301 8.80634H125.83C125.46 8.80634 125.402 8.87574 125.402 8.87574C125.384 8.92201 125.35 9.05503 125.35 9.45987V26.9433C125.35 27.2788 125.385 27.3539 125.39 27.3597L125.396 27.3655Z" fill="#55504A"/>
<path d="M155.811 27.5389C155.458 27.5389 155.245 27.4174 155.158 27.1687C155.071 26.9201 155.031 26.6482 155.031 26.3533V9.84723C155.031 9.55228 155.077 9.28045 155.175 9.03176C155.273 8.78307 155.493 8.66162 155.846 8.66162C156.095 8.66162 156.262 8.78886 156.343 9.04333C156.424 9.2978 156.471 9.56384 156.471 9.84723V17.2674H171.467V9.84723C171.467 9.55228 171.502 9.28045 171.577 9.03176C171.652 8.78307 171.849 8.66162 172.179 8.66162C172.508 8.66162 172.722 8.78886 172.797 9.03176C172.873 9.28045 172.907 9.55228 172.907 9.84723V26.3533C172.907 26.6482 172.873 26.9201 172.797 27.1687C172.722 27.4174 172.526 27.5389 172.196 27.5389C171.866 27.5389 171.652 27.4174 171.577 27.1687C171.502 26.9201 171.467 26.6482 171.467 26.3533V18.32H156.471V26.3533C156.471 26.6367 156.424 26.9027 156.326 27.1572C156.228 27.4117 156.06 27.5389 155.811 27.5389Z" fill="#55504A"/>
<path d="M172.196 27.6835C171.687 27.6835 171.502 27.4233 171.438 27.2093C171.363 26.949 171.322 26.6599 171.322 26.3533V18.4647H156.615V26.3533C156.615 26.6541 156.563 26.9375 156.459 27.2093C156.343 27.5216 156.118 27.6835 155.805 27.6835C155.285 27.6835 155.088 27.4291 155.019 27.2151C154.926 26.9548 154.886 26.6656 154.886 26.3533V9.84729C154.886 9.53498 154.938 9.24581 155.042 8.97977C155.123 8.76578 155.331 8.51709 155.846 8.51709C156.158 8.51709 156.378 8.68481 156.482 8.99712C156.569 9.26316 156.615 9.55233 156.615 9.84729V17.1229H171.322V9.84729C171.322 9.54076 171.363 9.25159 171.438 8.99133C171.502 8.77156 171.681 8.51709 172.178 8.51709C172.676 8.51709 172.872 8.77735 172.936 8.99133C173.011 9.25159 173.052 9.54076 173.052 9.84729V26.3533C173.052 26.6599 173.011 26.949 172.936 27.2093C172.872 27.4291 172.693 27.6835 172.196 27.6835ZM156.326 18.1755H171.612V26.3533C171.612 26.6309 171.646 26.8912 171.716 27.1225C171.75 27.2382 171.837 27.3944 172.196 27.3944C172.554 27.3944 172.624 27.2382 172.658 27.1225C172.728 26.8912 172.762 26.6309 172.762 26.3533V9.84729C172.762 9.56968 172.728 9.30943 172.658 9.0723C172.624 8.95663 172.537 8.80048 172.178 8.80048C171.82 8.80048 171.75 8.95663 171.716 9.0723C171.646 9.30364 171.612 9.5639 171.612 9.84729V17.4121H156.326V9.84729C156.326 9.58125 156.285 9.32678 156.204 9.08965C156.141 8.89301 156.025 8.80626 155.84 8.80626C155.458 8.80626 155.354 8.9682 155.308 9.08387C155.221 9.31521 155.175 9.56968 155.175 9.84729V26.3533C155.175 26.6309 155.215 26.8854 155.296 27.1225C155.337 27.2382 155.435 27.4001 155.811 27.4001C156.002 27.4001 156.118 27.3134 156.193 27.111C156.28 26.8738 156.326 26.6194 156.326 26.3591V18.1813V18.1755Z" fill="#55504A"/>
<path d="M189.427 27.8914C185.135 27.8914 181.989 27.0818 179.988 25.4682C177.987 23.8546 176.986 21.3966 176.986 18.1C176.986 14.8034 177.987 12.3455 179.988 10.7319C181.989 9.11828 185.135 8.30859 189.427 8.30859C193.718 8.30859 196.87 9.11828 198.871 10.7319C200.878 12.3455 201.878 14.8034 201.878 18.1C201.878 21.3966 200.878 23.8546 198.871 25.4682C196.864 27.0818 193.718 27.8914 189.427 27.8914ZM189.427 26.7752C193.134 26.7752 195.893 26.1159 197.714 24.8031C199.536 23.4902 200.444 21.252 200.444 18.1C200.444 14.948 199.536 12.7156 197.714 11.397C195.898 10.0841 193.134 9.4248 189.427 9.4248C185.719 9.4248 182.961 10.0841 181.15 11.397C179.34 12.7156 178.432 14.948 178.432 18.1C178.432 21.252 179.34 23.4844 181.15 24.8031C182.961 26.1217 185.725 26.7752 189.427 26.7752Z" fill="#55504A"/>
<path d="M189.426 28.0359C185.118 28.0359 181.914 27.2089 179.895 25.578C177.871 23.9412 176.842 21.4254 176.842 18.0941C176.842 14.7629 177.871 12.247 179.895 10.6103C181.914 8.97938 185.118 8.15234 189.426 8.15234C193.735 8.15234 196.939 8.97938 198.963 10.6045C200.993 12.2413 202.023 14.7571 202.023 18.0884C202.023 21.4196 200.993 23.9355 198.963 25.5722C196.939 27.2031 193.735 28.0302 189.426 28.0302V28.0359ZM189.426 8.4473C185.187 8.4473 182.041 9.2512 180.08 10.8359C178.125 12.4148 177.137 14.8554 177.137 18.0941C177.137 21.3329 178.125 23.7735 180.08 25.3524C182.047 26.9371 185.187 27.741 189.426 27.741C193.666 27.741 196.812 26.9371 198.784 25.3524C200.745 23.7735 201.739 21.3329 201.739 18.0941C201.739 14.8554 200.745 12.4148 198.784 10.8359C196.818 9.2512 193.666 8.4473 189.426 8.4473ZM189.426 26.9139C185.708 26.9139 182.897 26.2431 181.063 24.9129C179.219 23.5769 178.282 21.2808 178.282 18.0941C178.282 14.9074 179.219 12.6114 181.063 11.2754C182.891 9.94522 185.708 9.27434 189.426 9.27434C193.145 9.27434 195.962 9.94522 197.795 11.2754C199.646 12.6114 200.583 14.9074 200.583 18.0941C200.583 21.2808 199.646 23.5711 197.795 24.9129C195.962 26.2431 193.145 26.9139 189.426 26.9139ZM189.426 9.56351C185.771 9.56351 183.013 10.217 181.231 11.5125C179.467 12.7965 178.571 15.0115 178.571 18.0999C178.571 21.1883 179.467 23.4034 181.231 24.6815C183.013 25.9712 185.765 26.6305 189.426 26.6305C193.087 26.6305 195.84 25.977 197.627 24.6815C199.397 23.3976 200.294 21.1825 200.294 18.0999C200.294 15.0173 199.397 12.7965 197.627 11.5183C195.84 10.2286 193.082 9.5693 189.426 9.5693V9.56351Z" fill="#55504A"/>
<path d="M206.694 27.539C206.365 27.539 206.162 27.4233 206.087 27.192C206.012 26.9606 205.966 26.683 205.966 26.3533V9.58127C205.966 9.32101 206.035 9.10703 206.18 8.92774C206.318 8.75423 206.498 8.66748 206.712 8.66748C207.07 8.66748 207.417 8.91039 207.747 9.3962L218.25 25.1909L228.752 9.3962C229.071 8.91039 229.412 8.66748 229.788 8.66748C230.002 8.66748 230.181 8.75423 230.32 8.92774C230.459 9.10124 230.534 9.32101 230.534 9.58127V26.3533C230.534 26.683 230.493 26.9606 230.412 27.192C230.331 27.4233 230.129 27.539 229.805 27.539C229.522 27.539 229.331 27.4233 229.238 27.192C229.146 26.9606 229.094 26.683 229.094 26.3533V11.3047L219.082 26.0815C218.811 26.4632 218.533 26.6599 218.25 26.6599C217.943 26.6599 217.666 26.469 217.417 26.0815L207.406 11.3047V26.3533C207.406 26.683 207.359 26.9606 207.261 27.192C207.163 27.4233 206.978 27.539 206.694 27.539Z" fill="#55504A"/>
<path d="M229.805 27.6836C229.377 27.6836 229.186 27.4465 229.105 27.2498C229.001 27.0012 228.949 26.7004 228.949 26.3534V11.779L219.198 26.1626C218.573 27.0416 217.827 26.9838 217.295 26.1626L207.55 11.779V26.3534C207.55 26.7004 207.498 27.0012 207.394 27.2498C207.313 27.4465 207.122 27.6836 206.694 27.6836C206.202 27.6836 206.017 27.4407 205.948 27.2383C205.861 26.9954 205.821 26.6946 205.821 26.3534V9.58133C205.821 9.29215 205.902 9.03768 206.063 8.84104C206.231 8.63284 206.451 8.52295 206.711 8.52295C207.122 8.52295 207.509 8.78899 207.862 9.31529L218.249 24.9249L228.636 9.31529C228.978 8.78899 229.365 8.52295 229.793 8.52295C230.053 8.52295 230.267 8.62705 230.441 8.84104C230.603 9.04346 230.684 9.29215 230.684 9.58133V26.3534C230.684 26.6946 230.643 26.9954 230.556 27.2383C230.487 27.4407 230.302 27.6836 229.81 27.6836H229.805ZM229.238 10.8363V26.3534C229.238 26.6599 229.284 26.926 229.371 27.1342C229.446 27.3077 229.585 27.3944 229.805 27.3944C230.152 27.3944 230.238 27.2498 230.279 27.1457C230.354 26.9318 230.389 26.6657 230.389 26.3534V9.58133C230.389 9.35577 230.331 9.1707 230.209 9.02033C230.094 8.88153 229.961 8.81212 229.787 8.81212C229.469 8.81212 229.163 9.03768 228.873 9.47722L218.249 25.4512L207.625 9.47722C207.33 9.03768 207.018 8.81212 206.711 8.81212C206.543 8.81212 206.405 8.88153 206.289 9.02033C206.168 9.1707 206.11 9.35577 206.11 9.58133V26.3534C206.11 26.6657 206.144 26.9318 206.22 27.1457C206.254 27.2556 206.347 27.3944 206.694 27.3944C206.919 27.3944 207.052 27.3135 207.128 27.1342C207.214 26.9202 207.261 26.6599 207.261 26.3534V10.8363L217.538 26.0006C217.96 26.6541 218.457 26.712 218.961 26.0006L229.238 10.8363Z" fill="#55504A"/>
<path d="M236.393 27.539C236.179 27.539 236.051 27.5043 236.011 27.4349C235.97 27.3655 235.953 27.2035 235.953 26.9433V9.45982C235.953 9.13016 235.976 8.91617 236.023 8.81785C236.069 8.71953 236.254 8.66748 236.584 8.66748H252.054C252.384 8.66748 252.673 8.68483 252.928 8.71953C253.182 8.75423 253.309 8.93352 253.309 9.26318C253.309 9.54657 253.182 9.70272 252.928 9.73742C252.673 9.77213 252.384 9.78948 252.054 9.78948H237.399V17.2097H251.973C252.222 17.2097 252.43 17.2444 252.598 17.3138C252.766 17.3832 252.852 17.5278 252.852 17.7533C252.852 18.002 252.783 18.1639 252.638 18.2449C252.494 18.3259 252.315 18.3664 252.089 18.3664H237.399V26.4343H252.089C252.419 26.4343 252.708 26.4517 252.962 26.4864C253.217 26.5211 253.344 26.6772 253.344 26.9606C253.344 27.2903 253.24 27.4638 253.032 27.4927C252.824 27.5216 252.552 27.539 252.228 27.5505H236.404L236.393 27.539Z" fill="#55504A"/>
<path d="M236.393 27.6836C236.116 27.6836 235.959 27.6316 235.884 27.5101C235.849 27.4465 235.803 27.325 235.803 26.9433V9.45987C235.803 8.99141 235.849 8.83526 235.884 8.76007C235.959 8.59235 236.173 8.52295 236.578 8.52295H252.049C252.384 8.52295 252.679 8.5403 252.94 8.575C253.131 8.59813 253.449 8.72537 253.449 9.26324C253.449 9.61603 253.269 9.8358 252.94 9.88207C252.679 9.91677 252.379 9.93412 252.049 9.93412H237.538V17.0651H251.968C252.234 17.0651 252.465 17.1056 252.65 17.175C252.807 17.2386 252.997 17.389 252.997 17.7476C252.997 18.0541 252.899 18.2565 252.714 18.3664C252.552 18.459 252.344 18.5052 252.095 18.5052H237.55V26.284H252.095C252.431 26.284 252.726 26.3014 252.986 26.3361C253.31 26.3823 253.495 26.6021 253.495 26.9549C253.495 27.4638 253.258 27.6026 253.055 27.6316C252.841 27.6605 252.57 27.6778 252.234 27.6894H236.405L236.393 27.6836ZM236.139 27.3655C236.139 27.3655 236.196 27.3944 236.393 27.3944H252.217C252.535 27.3829 252.801 27.3655 253.003 27.3366C253.055 27.3308 253.194 27.3135 253.194 26.9491C253.194 26.6888 253.073 26.6368 252.94 26.6194C252.691 26.5847 252.408 26.5674 252.084 26.5674H237.249V18.2103H252.084C252.286 18.2103 252.442 18.1756 252.564 18.112C252.656 18.0599 252.703 17.9384 252.703 17.7476C252.703 17.5336 252.616 17.47 252.541 17.4411C252.39 17.3775 252.194 17.3485 251.968 17.3485H237.249V9.63916H252.049C252.367 9.63916 252.656 9.62181 252.905 9.58711C253.038 9.56976 253.159 9.51771 253.159 9.25745C253.159 8.93358 253.032 8.87574 252.905 8.85839C252.656 8.82369 252.373 8.80634 252.049 8.80634H236.578C236.208 8.80634 236.15 8.87574 236.15 8.87574C236.133 8.92201 236.098 9.05503 236.098 9.45987V26.9433C236.098 27.2788 236.133 27.3539 236.139 27.3597V27.3655Z" fill="#55504A"/>
<path d="M27.5501 10.5123C27.5443 10.4371 27.5327 10.3677 27.5038 10.2983C27.498 10.281 27.4865 10.2636 27.4807 10.2463C27.4229 10.1017 27.3361 9.96865 27.1915 9.85876L14.8785 0.477964C14.5431 0.223491 14.0804 0.223491 13.7391 0.477964L1.42613 9.85876C1.27576 9.97443 1.18322 10.119 1.12539 10.2694C1.09069 10.3677 1.06755 10.466 1.06755 10.5701C1.06755 10.5817 1.06177 10.5933 1.06177 10.6048V26.839C1.06177 27.3133 1.44926 27.7008 1.92351 27.7008H9.28587C9.28587 27.7008 9.28587 27.6834 9.28587 27.6777V17.6607C9.28587 17.3946 9.33792 17.1633 9.43624 16.9724C9.55191 16.7469 9.78903 16.6312 10.1418 16.6312C10.4946 16.6312 10.6681 16.8221 10.7317 16.9782C10.8069 17.1633 10.8474 17.3946 10.8474 17.6607V18.6323C11.1019 18.1291 11.4431 17.7301 11.8827 17.4293C12.5188 16.9898 13.2186 16.6948 13.9647 16.5445C14.6992 16.3999 15.3527 16.3247 15.9022 16.3247C16.7234 16.3247 17.3133 16.3652 17.7066 16.4519C18.0941 16.5387 18.4238 16.6196 18.7187 16.7064C19.0021 16.7874 19.1583 17.0071 19.1583 17.3252C19.1583 17.493 19.1004 17.6549 18.9905 17.7937C18.8691 17.9498 18.6956 18.025 18.47 18.025C18.4064 18.025 18.3659 18.025 18.3312 18.0077C18.3254 18.0077 18.2907 17.9961 18.2503 17.9903C17.8396 17.8747 17.4521 17.7879 17.082 17.7243C16.7176 17.6607 16.3186 17.6318 15.9022 17.6318C14.6992 17.6318 13.6235 17.8689 12.6923 18.3431C12.3338 18.5224 12.0215 18.748 11.7554 19.0082C11.1482 19.6039 10.8416 20.4483 10.8416 21.3043V27.6834C10.8416 27.6834 10.8416 27.7008 10.8416 27.7066H26.7115C27.1857 27.7066 27.5732 27.3191 27.5732 26.8448V10.6106C27.5732 10.5759 27.5559 10.547 27.5559 10.5123H27.5501Z" fill="#55504A"/>
</g>
<defs>
<clipPath id="clip0_2_1623">
<rect width="254.074" height="28" fill="white"/>
</clipPath>
</defs>
</svg>
