<svg width="337" height="117" viewBox="0 0 337 117" fill="none" xmlns="http://www.w3.org/2000/svg">
<mask id="path-1-outside-1_2_976" maskUnits="userSpaceOnUse" x="-11.3585" y="-13.8158" width="355.05" height="149.179" fill="black">
<rect fill="white" x="-11.3585" y="-13.8158" width="355.05" height="149.179"/>
<path d="M99.8622 91.7857L100.328 92.7923C84.1463 100.086 69.8253 89.2816 60.7977 82.4657C60.3956 82.1676 59.9935 81.8696 59.6321 81.5631C57.3842 81.7787 55.3869 81.7721 53.8524 81.5412C51.5542 86.1837 49.0034 90.8366 46.2132 95.1574C48.7857 95.6806 51.4328 96.3581 54.2276 97.1321L53.9438 98.2106C51.0099 97.3808 48.2322 96.6882 45.5698 96.1413C39.2307 105.621 31.5302 113.263 21.7257 115.315C-10.8205 122.126 -8.76477 83.8597 45.1025 94.9227C47.9012 90.6426 50.452 85.9897 52.7823 81.298C52.6518 81.2829 52.5127 81.227 52.4228 81.2034C49.8144 80.3055 49.6555 77.1114 52.2185 76.575C52.9508 76.4218 53.8004 76.6262 54.7995 77.139C56.3124 74.0197 57.7032 70.926 59.0383 67.9713C61.925 61.6769 64.5477 55.9474 67.0786 51.8082C57.3119 54.4467 47.5281 60.6558 44.9895 69.4252L43.9516 69.1328C46.6085 59.914 57.2769 53.265 67.8185 50.6767C69.2339 48.512 70.6787 46.8932 72.1054 46.0002L72.6759 46.8999C71.5897 47.5943 70.4752 48.7618 69.3559 50.3124C81.5522 47.7175 92.9821 50.5911 90.8588 61.142C88.6087 72.1017 74.9392 78.6144 64.2804 80.8451C63.2226 81.0664 62.1563 81.2471 61.1629 81.3701C61.2698 81.4751 61.3682 81.5395 61.4666 81.6038C70.4942 88.4197 84.2655 98.8291 99.8622 91.7857ZM60.0288 68.4434C58.6938 71.3981 57.2623 74.5003 55.7901 77.6111C57.003 78.334 58.3975 79.316 59.9075 80.4438C61.2349 80.2934 62.6351 80.0853 64.059 79.7873C74.5551 77.5907 87.6891 71.3599 89.7973 60.9396C91.7976 51.2212 80.4358 48.6731 68.6075 51.4033C65.9375 55.4866 63.171 61.5435 60.0288 68.4434ZM52.8051 80.1892C52.9441 80.245 53.1239 80.2923 53.2545 80.3074C53.6471 79.5458 53.9991 78.7927 54.351 78.0397C53.5979 77.6877 52.9281 77.5306 52.4399 77.6328C50.9753 77.9393 51.2024 79.6328 52.8051 80.1892ZM54.3652 80.5421C55.4504 80.6547 56.8203 80.7077 58.3275 80.6046C57.1789 79.7834 56.1779 79.0587 55.3094 78.561C55.0218 79.2157 54.6935 79.8789 54.3652 80.5421ZM21.5043 114.257C30.8613 112.299 38.3045 105.051 44.4591 95.9067C-7.16116 85.435 -9.04846 120.651 21.5043 114.257ZM113.654 76.9244L114.265 77.8156C110.036 80.739 104.078 84.5337 101.311 85.1127C99.5214 85.4873 98.2934 84.895 97.9954 83.4711C97.8337 82.6981 97.9226 81.7028 98.11 80.7719C96.5725 82.9621 94.403 85.5818 92.7757 85.9224C91.962 86.0926 91.2865 85.2998 91.0737 84.2827C90.5628 81.8418 92.6926 78.4235 95.1336 77.9127C96.3134 77.6658 97.4582 78.0632 98.0693 78.9544L99.0987 77.3801L99.6891 77.7661L100.057 77.9014C99.7543 78.6867 98.7296 81.7038 99.0532 83.2498C99.2235 84.0634 99.829 84.3189 101.09 84.0549C103.124 83.6292 107.756 81.0039 113.654 76.9244ZM92.1314 84.0614C92.2251 84.5089 92.473 84.8816 92.5543 84.8646C93.8969 84.5836 95.9121 82.0387 97.3853 79.9469C97.1014 79.1994 96.25 78.7831 95.3549 78.9704C93.5242 79.3536 91.7483 82.2306 92.1314 84.0614ZM124.193 68.7312L122.367 70.5572L121.61 69.7813L123.436 67.9554L124.193 68.7312ZM140.08 71.3939L140.772 72.2681C137.008 75.1792 130.614 78.5132 125.651 79.5519C120.606 80.6076 117.796 79.9642 117.277 77.4826C117.149 76.8723 117.184 76.228 117.382 75.5497C116.54 76.193 115.503 76.9196 114.247 77.8193L113.636 76.9281C116.788 74.7398 118.423 73.4209 118.995 72.7067L119.027 72.6575L119.889 73.3264C118.519 75.0993 118.105 76.1628 118.334 77.2612C118.692 78.9699 120.954 79.4307 125.429 78.4941C130.23 77.4895 136.397 74.288 140.08 71.3939ZM168.086 66.5521C164.304 69.3818 159.473 72.4735 154.917 73.4271C153.371 73.7507 151.853 73.6011 150.464 73.2548C149.789 74.288 148.638 75.0808 147.092 75.4043C144.936 75.8556 142.654 74.0825 141.638 71.6624C141.338 71.8525 141.047 72.0834 140.747 72.2735L140.136 71.3823C140.508 71.1344 140.873 70.8458 141.245 70.598C141.092 69.8657 141.029 69.157 141.087 68.4229C141.237 66.9053 142.283 67.2384 144.063 68.4371C145.447 67.3406 146.782 66.2119 148.19 65.0256C148.335 63.8912 149.66 63.5289 149.66 63.5289L149.701 63.5203C150.352 63.3841 150.783 64.228 150.265 64.5913C149.941 64.8714 149.65 65.1022 149.367 65.3738C149.377 65.6264 149.495 65.984 149.8 66.4296C151.236 68.4221 151.589 70.514 150.977 72.2558C152.145 72.5633 153.393 72.6418 154.695 72.3694C159.089 71.4499 163.693 68.4905 167.393 65.6778L168.086 66.5521ZM148.909 67.0408C148.678 66.7494 148.537 66.4816 148.396 66.2139C147.248 67.2186 146.131 68.1742 145.006 69.089C146.36 70.0796 148.041 71.214 149.931 71.9227C150.448 70.5405 150.155 68.7334 148.909 67.0408ZM142.132 68.544C142.095 68.9764 142.107 69.4409 142.201 69.8884C142.533 69.6491 142.857 69.369 143.189 69.1297C142.139 68.3728 142.188 68.4049 142.132 68.544ZM146.871 74.3466C147.969 74.1167 148.837 73.5954 149.409 72.8811C147.291 72.093 145.486 70.7721 144.132 69.7815L142.521 71.0105C143.297 73.0986 145.162 74.7042 146.871 74.3466ZM187.935 61.3789L188.586 62.2616C184.256 65.7158 177.328 70.3506 172.445 70.3533C169.307 70.3731 167.545 68.4487 167.224 66.3077L167.207 66.2263C166.959 64.0275 168.283 61.6273 171.416 60.9717C172.636 60.7163 173.742 61.3341 173.972 62.4326C174.593 65.4024 171.225 67.9757 169.023 67.7997C169.715 68.6739 170.862 69.2832 172.427 69.253C176.967 69.237 183.604 64.833 187.935 61.3789ZM171.637 62.0295C169.155 62.5488 168.096 64.3842 168.282 66.0863C168.796 67.9322 173.519 65.5424 172.914 62.6539C172.812 62.1657 172.288 61.8932 171.637 62.0295ZM248.754 31.6224C253.312 14.4469 259.643 1.27438 264.037 0.35486L264.258 1.41261C260.475 2.20442 254.153 15.4176 249.832 31.9062C248.981 35.1419 248.219 38.4012 247.556 41.7249C251.301 40.3465 253.909 38.3995 255.434 35.7447L256.392 36.266C254.601 39.2737 251.63 41.5093 247.338 42.917C245.408 53.1727 244.707 63.2137 246.214 70.4146C247.916 78.5511 252.144 81.9127 258.776 80.5249L258.997 81.5827C251.756 83.0982 246.978 79.3421 245.156 70.6359C243.649 63.4351 244.318 53.4433 246.184 43.2859C245.419 43.4884 244.655 43.6908 243.841 43.8611C240.709 44.5167 237.598 44.8705 234.584 45.0767C229.561 55.9795 220.199 66.4319 207.79 69.0286C199.369 70.7911 193.01 68.0027 191.776 62.1038C190.465 55.8386 195.867 47.3616 208.235 44.7733C212.181 43.9475 216.999 44.0431 222.282 44.1265C225.951 44.2079 229.873 44.279 233.938 44.0227C237.143 36.8125 238.366 29.465 237.259 24.1763C236.85 22.2235 236.135 20.6321 235.122 19.4429L235.955 18.7589C237.084 20.0938 237.874 21.8394 238.316 23.9549C239.432 29.2844 238.218 36.6725 235.071 43.9555C237.873 43.7512 240.731 43.4079 243.62 42.8034C244.596 42.599 245.523 42.3625 246.401 42.0938C247.063 38.5583 247.855 35.0378 248.754 31.6224ZM207.569 67.9709C219.489 65.4763 228.498 55.5651 233.451 45.1438C229.54 45.3254 225.749 45.2695 222.251 45.1947C216.968 45.1113 212.28 45.0308 208.456 45.8311C196.536 48.3257 191.616 56.0648 192.833 61.8824C193.94 67.1711 199.717 69.6141 207.569 67.9709ZM314.536 34.8837L315.188 35.7664C309.707 40.0134 305.06 41.7503 302.09 42.3719C299.568 42.8997 299.068 41.7303 300.378 38.6536C300.809 37.6716 300.992 37.1238 301.087 36.7643C300.226 37.1143 298.979 38.0547 297.686 39.3868L294.15 43.1844L293.288 42.5155C294.414 40.7936 295.128 37.714 294.558 37.8332C294.274 37.8928 294.064 38.1066 292.415 39.768C291.333 40.8862 289.653 42.5968 286.961 45.1559L286.681 44.8323L286.099 44.487C286.59 43.7897 287.913 38.5445 288.054 36.9863C283.868 39.3061 279.945 40.8491 276.283 41.6154C272.866 42.3305 270.55 42.2207 268.527 42.092C267.63 42.0674 266.855 42.0172 266.008 42.0248C266.091 42.2197 266.174 42.4146 266.217 42.618C266.745 45.1403 263.592 49.9616 261.151 50.4725C260.175 50.6768 259.469 50.1451 259.248 49.0873C258.941 47.6228 259.785 45.3654 261.11 43.9841L261.866 44.7599C260.784 45.8782 260.067 47.7269 260.305 48.866C260.408 49.3542 260.564 49.4914 260.93 49.4147C262.801 49.0231 265.568 44.7922 265.159 42.8394C265.023 42.1885 264.655 42.0532 263.207 42.441L262.904 41.4003L263.189 41.3407C265.206 40.8336 266.846 40.9576 268.558 41.0239C270.573 41.1119 272.767 41.2472 276.062 40.5576C279.683 39.7999 283.679 38.1991 287.905 35.8709C288.392 35.5568 288.989 35.7715 289.116 36.3818C289.261 37.0734 288.525 40.4548 287.829 42.8086C289.599 41.1218 290.778 39.8559 291.659 38.9921C293.403 37.1832 293.767 36.8947 294.337 36.7755C295.802 36.469 296.061 38.1133 295.573 40.0415L296.889 38.6195C298.537 36.9582 300.124 35.8191 301.182 35.5977C301.63 35.5041 302.064 35.7529 302.149 36.1597C302.311 36.9327 301.791 38.103 301.401 39.0766C300.402 41.4087 300.404 41.6206 301.869 41.3141C304.757 40.7096 309.201 39.0152 314.536 34.8837ZM335.092 30.5819L335.744 31.4646C331.413 34.9188 324.485 39.5536 319.602 39.5563C316.464 39.5761 314.702 37.6517 314.381 35.5107L314.364 35.4293C314.116 33.2305 315.44 30.8303 318.573 30.1747C319.793 29.9193 320.899 30.5371 321.129 31.6356C321.751 34.6054 318.382 37.1787 316.18 37.0027C316.872 37.8769 318.019 38.4862 319.584 38.456C324.124 38.44 330.761 34.036 335.092 30.5819ZM318.794 31.2325C316.312 31.7518 315.253 33.5872 315.439 35.2893C315.953 37.1352 320.676 34.7454 320.071 31.8569C319.969 31.3687 319.445 31.0962 318.794 31.2325Z"/>
</mask>
<path d="M99.8622 91.7857L100.328 92.7923C84.1463 100.086 69.8253 89.2816 60.7977 82.4657C60.3956 82.1676 59.9935 81.8696 59.6321 81.5631C57.3842 81.7787 55.3869 81.7721 53.8524 81.5412C51.5542 86.1837 49.0034 90.8366 46.2132 95.1574C48.7857 95.6806 51.4328 96.3581 54.2276 97.1321L53.9438 98.2106C51.0099 97.3808 48.2322 96.6882 45.5698 96.1413C39.2307 105.621 31.5302 113.263 21.7257 115.315C-10.8205 122.126 -8.76477 83.8597 45.1025 94.9227C47.9012 90.6426 50.452 85.9897 52.7823 81.298C52.6518 81.2829 52.5127 81.227 52.4228 81.2034C49.8144 80.3055 49.6555 77.1114 52.2185 76.575C52.9508 76.4218 53.8004 76.6262 54.7995 77.139C56.3124 74.0197 57.7032 70.926 59.0383 67.9713C61.925 61.6769 64.5477 55.9474 67.0786 51.8082C57.3119 54.4467 47.5281 60.6558 44.9895 69.4252L43.9516 69.1328C46.6085 59.914 57.2769 53.265 67.8185 50.6767C69.2339 48.512 70.6787 46.8932 72.1054 46.0002L72.6759 46.8999C71.5897 47.5943 70.4752 48.7618 69.3559 50.3124C81.5522 47.7175 92.9821 50.5911 90.8588 61.142C88.6087 72.1017 74.9392 78.6144 64.2804 80.8451C63.2226 81.0664 62.1563 81.2471 61.1629 81.3701C61.2698 81.4751 61.3682 81.5395 61.4666 81.6038C70.4942 88.4197 84.2655 98.8291 99.8622 91.7857ZM60.0288 68.4434C58.6938 71.3981 57.2623 74.5003 55.7901 77.6111C57.003 78.334 58.3975 79.316 59.9075 80.4438C61.2349 80.2934 62.6351 80.0853 64.059 79.7873C74.5551 77.5907 87.6891 71.3599 89.7973 60.9396C91.7976 51.2212 80.4358 48.6731 68.6075 51.4033C65.9375 55.4866 63.171 61.5435 60.0288 68.4434ZM52.8051 80.1892C52.9441 80.245 53.1239 80.2923 53.2545 80.3074C53.6471 79.5458 53.9991 78.7927 54.351 78.0397C53.5979 77.6877 52.9281 77.5306 52.4399 77.6328C50.9753 77.9393 51.2024 79.6328 52.8051 80.1892ZM54.3652 80.5421C55.4504 80.6547 56.8203 80.7077 58.3275 80.6046C57.1789 79.7834 56.1779 79.0587 55.3094 78.561C55.0218 79.2157 54.6935 79.8789 54.3652 80.5421ZM21.5043 114.257C30.8613 112.299 38.3045 105.051 44.4591 95.9067C-7.16116 85.435 -9.04846 120.651 21.5043 114.257ZM113.654 76.9244L114.265 77.8156C110.036 80.739 104.078 84.5337 101.311 85.1127C99.5214 85.4873 98.2934 84.895 97.9954 83.4711C97.8337 82.6981 97.9226 81.7028 98.11 80.7719C96.5725 82.9621 94.403 85.5818 92.7757 85.9224C91.962 86.0926 91.2865 85.2998 91.0737 84.2827C90.5628 81.8418 92.6926 78.4235 95.1336 77.9127C96.3134 77.6658 97.4582 78.0632 98.0693 78.9544L99.0987 77.3801L99.6891 77.7661L100.057 77.9014C99.7543 78.6867 98.7296 81.7038 99.0532 83.2498C99.2235 84.0634 99.829 84.3189 101.09 84.0549C103.124 83.6292 107.756 81.0039 113.654 76.9244ZM92.1314 84.0614C92.2251 84.5089 92.473 84.8816 92.5543 84.8646C93.8969 84.5836 95.9121 82.0387 97.3853 79.9469C97.1014 79.1994 96.25 78.7831 95.3549 78.9704C93.5242 79.3536 91.7483 82.2306 92.1314 84.0614ZM124.193 68.7312L122.367 70.5572L121.61 69.7813L123.436 67.9554L124.193 68.7312ZM140.08 71.3939L140.772 72.2681C137.008 75.1792 130.614 78.5132 125.651 79.5519C120.606 80.6076 117.796 79.9642 117.277 77.4826C117.149 76.8723 117.184 76.228 117.382 75.5497C116.54 76.193 115.503 76.9196 114.247 77.8193L113.636 76.9281C116.788 74.7398 118.423 73.4209 118.995 72.7067L119.027 72.6575L119.889 73.3264C118.519 75.0993 118.105 76.1628 118.334 77.2612C118.692 78.9699 120.954 79.4307 125.429 78.4941C130.23 77.4895 136.397 74.288 140.08 71.3939ZM168.086 66.5521C164.304 69.3818 159.473 72.4735 154.917 73.4271C153.371 73.7507 151.853 73.6011 150.464 73.2548C149.789 74.288 148.638 75.0808 147.092 75.4043C144.936 75.8556 142.654 74.0825 141.638 71.6624C141.338 71.8525 141.047 72.0834 140.747 72.2735L140.136 71.3823C140.508 71.1344 140.873 70.8458 141.245 70.598C141.092 69.8657 141.029 69.157 141.087 68.4229C141.237 66.9053 142.283 67.2384 144.063 68.4371C145.447 67.3406 146.782 66.2119 148.19 65.0256C148.335 63.8912 149.66 63.5289 149.66 63.5289L149.701 63.5203C150.352 63.3841 150.783 64.228 150.265 64.5913C149.941 64.8714 149.65 65.1022 149.367 65.3738C149.377 65.6264 149.495 65.984 149.8 66.4296C151.236 68.4221 151.589 70.514 150.977 72.2558C152.145 72.5633 153.393 72.6418 154.695 72.3694C159.089 71.4499 163.693 68.4905 167.393 65.6778L168.086 66.5521ZM148.909 67.0408C148.678 66.7494 148.537 66.4816 148.396 66.2139C147.248 67.2186 146.131 68.1742 145.006 69.089C146.36 70.0796 148.041 71.214 149.931 71.9227C150.448 70.5405 150.155 68.7334 148.909 67.0408ZM142.132 68.544C142.095 68.9764 142.107 69.4409 142.201 69.8884C142.533 69.6491 142.857 69.369 143.189 69.1297C142.139 68.3728 142.188 68.4049 142.132 68.544ZM146.871 74.3466C147.969 74.1167 148.837 73.5954 149.409 72.8811C147.291 72.093 145.486 70.7721 144.132 69.7815L142.521 71.0105C143.297 73.0986 145.162 74.7042 146.871 74.3466ZM187.935 61.3789L188.586 62.2616C184.256 65.7158 177.328 70.3506 172.445 70.3533C169.307 70.3731 167.545 68.4487 167.224 66.3077L167.207 66.2263C166.959 64.0275 168.283 61.6273 171.416 60.9717C172.636 60.7163 173.742 61.3341 173.972 62.4326C174.593 65.4024 171.225 67.9757 169.023 67.7997C169.715 68.6739 170.862 69.2832 172.427 69.253C176.967 69.237 183.604 64.833 187.935 61.3789ZM171.637 62.0295C169.155 62.5488 168.096 64.3842 168.282 66.0863C168.796 67.9322 173.519 65.5424 172.914 62.6539C172.812 62.1657 172.288 61.8932 171.637 62.0295ZM248.754 31.6224C253.312 14.4469 259.643 1.27438 264.037 0.35486L264.258 1.41261C260.475 2.20442 254.153 15.4176 249.832 31.9062C248.981 35.1419 248.219 38.4012 247.556 41.7249C251.301 40.3465 253.909 38.3995 255.434 35.7447L256.392 36.266C254.601 39.2737 251.63 41.5093 247.338 42.917C245.408 53.1727 244.707 63.2137 246.214 70.4146C247.916 78.5511 252.144 81.9127 258.776 80.5249L258.997 81.5827C251.756 83.0982 246.978 79.3421 245.156 70.6359C243.649 63.4351 244.318 53.4433 246.184 43.2859C245.419 43.4884 244.655 43.6908 243.841 43.8611C240.709 44.5167 237.598 44.8705 234.584 45.0767C229.561 55.9795 220.199 66.4319 207.79 69.0286C199.369 70.7911 193.01 68.0027 191.776 62.1038C190.465 55.8386 195.867 47.3616 208.235 44.7733C212.181 43.9475 216.999 44.0431 222.282 44.1265C225.951 44.2079 229.873 44.279 233.938 44.0227C237.143 36.8125 238.366 29.465 237.259 24.1763C236.85 22.2235 236.135 20.6321 235.122 19.4429L235.955 18.7589C237.084 20.0938 237.874 21.8394 238.316 23.9549C239.432 29.2844 238.218 36.6725 235.071 43.9555C237.873 43.7512 240.731 43.4079 243.62 42.8034C244.596 42.599 245.523 42.3625 246.401 42.0938C247.063 38.5583 247.855 35.0378 248.754 31.6224ZM207.569 67.9709C219.489 65.4763 228.498 55.5651 233.451 45.1438C229.54 45.3254 225.749 45.2695 222.251 45.1947C216.968 45.1113 212.28 45.0308 208.456 45.8311C196.536 48.3257 191.616 56.0648 192.833 61.8824C193.94 67.1711 199.717 69.6141 207.569 67.9709ZM314.536 34.8837L315.188 35.7664C309.707 40.0134 305.06 41.7503 302.09 42.3719C299.568 42.8997 299.068 41.7303 300.378 38.6536C300.809 37.6716 300.992 37.1238 301.087 36.7643C300.226 37.1143 298.979 38.0547 297.686 39.3868L294.15 43.1844L293.288 42.5155C294.414 40.7936 295.128 37.714 294.558 37.8332C294.274 37.8928 294.064 38.1066 292.415 39.768C291.333 40.8862 289.653 42.5968 286.961 45.1559L286.681 44.8323L286.099 44.487C286.59 43.7897 287.913 38.5445 288.054 36.9863C283.868 39.3061 279.945 40.8491 276.283 41.6154C272.866 42.3305 270.55 42.2207 268.527 42.092C267.63 42.0674 266.855 42.0172 266.008 42.0248C266.091 42.2197 266.174 42.4146 266.217 42.618C266.745 45.1403 263.592 49.9616 261.151 50.4725C260.175 50.6768 259.469 50.1451 259.248 49.0873C258.941 47.6228 259.785 45.3654 261.11 43.9841L261.866 44.7599C260.784 45.8782 260.067 47.7269 260.305 48.866C260.408 49.3542 260.564 49.4914 260.93 49.4147C262.801 49.0231 265.568 44.7922 265.159 42.8394C265.023 42.1885 264.655 42.0532 263.207 42.441L262.904 41.4003L263.189 41.3407C265.206 40.8336 266.846 40.9576 268.558 41.0239C270.573 41.1119 272.767 41.2472 276.062 40.5576C279.683 39.7999 283.679 38.1991 287.905 35.8709C288.392 35.5568 288.989 35.7715 289.116 36.3818C289.261 37.0734 288.525 40.4548 287.829 42.8086C289.599 41.1218 290.778 39.8559 291.659 38.9921C293.403 37.1832 293.767 36.8947 294.337 36.7755C295.802 36.469 296.061 38.1133 295.573 40.0415L296.889 38.6195C298.537 36.9582 300.124 35.8191 301.182 35.5977C301.63 35.5041 302.064 35.7529 302.149 36.1597C302.311 36.9327 301.791 38.103 301.401 39.0766C300.402 41.4087 300.404 41.6206 301.869 41.3141C304.757 40.7096 309.201 39.0152 314.536 34.8837ZM335.092 30.5819L335.744 31.4646C331.413 34.9188 324.485 39.5536 319.602 39.5563C316.464 39.5761 314.702 37.6517 314.381 35.5107L314.364 35.4293C314.116 33.2305 315.44 30.8303 318.573 30.1747C319.793 29.9193 320.899 30.5371 321.129 31.6356C321.751 34.6054 318.382 37.1787 316.18 37.0027C316.872 37.8769 318.019 38.4862 319.584 38.456C324.124 38.44 330.761 34.036 335.092 30.5819ZM318.794 31.2325C316.312 31.7518 315.253 33.5872 315.439 35.2893C315.953 37.1352 320.676 34.7454 320.071 31.8569C319.969 31.3687 319.445 31.0962 318.794 31.2325Z" fill="#55504A"/>
<path d="M99.8622 91.7857L100.135 91.6598L100.01 91.3899L99.7388 91.5123L99.8622 91.7857ZM100.328 92.7923L100.451 93.0658L100.727 92.9414L100.6 92.6664L100.328 92.7923ZM60.7977 82.4657L60.9785 82.2262L60.9763 82.2247L60.7977 82.4657ZM59.6321 81.5631L59.8262 81.3343L59.7296 81.2523L59.6035 81.2644L59.6321 81.5631ZM53.8524 81.5412L53.897 81.2445L53.6806 81.212L53.5835 81.4081L53.8524 81.5412ZM46.2132 95.1574L45.9612 94.9946L45.7228 95.3638L46.1534 95.4514L46.2132 95.1574ZM54.2276 97.1321L54.5178 97.2084L54.5931 96.922L54.3077 96.843L54.2276 97.1321ZM53.9438 98.2106L53.8621 98.4993L54.1561 98.5825L54.2339 98.287L53.9438 98.2106ZM45.5698 96.1413L45.6302 95.8475L45.4326 95.8069L45.3205 95.9746L45.5698 96.1413ZM45.1025 94.9227L45.0421 95.2166L45.2419 95.2576L45.3536 95.0869L45.1025 94.9227ZM52.7823 81.298L53.051 81.4315L53.2409 81.0492L52.8169 81L52.7823 81.298ZM52.4228 81.2034L52.3252 81.4871L52.3357 81.4907L52.3465 81.4935L52.4228 81.2034ZM54.7995 77.139L54.6625 77.4059L54.9355 77.546L55.0694 77.2699L54.7995 77.139ZM59.0383 67.9713L58.7656 67.8462L58.7649 67.8478L59.0383 67.9713ZM67.0786 51.8082L67.3346 51.9647L67.7275 51.3222L67.0004 51.5186L67.0786 51.8082ZM44.9895 69.4252L44.9082 69.7139L45.1948 69.7947L45.2777 69.5086L44.9895 69.4252ZM43.9516 69.1328L43.6634 69.0497L43.5798 69.3397L43.8703 69.4215L43.9516 69.1328ZM67.8185 50.6767L67.89 50.968L68.0049 50.9398L68.0696 50.8408L67.8185 50.6767ZM72.1054 46.0002L72.3588 45.8395L72.199 45.5876L71.9462 45.7459L72.1054 46.0002ZM72.6759 46.8999L72.8375 47.1527L73.0893 46.9917L72.9293 46.7393L72.6759 46.8999ZM69.3559 50.3124L69.1127 50.1369L68.6573 50.7678L69.4184 50.6059L69.3559 50.3124ZM90.8588 61.142L91.1527 61.2024L91.1529 61.2012L90.8588 61.142ZM61.1629 81.3701L61.1261 81.0724L60.5095 81.1487L60.9527 81.5841L61.1629 81.3701ZM61.4666 81.6038L61.6474 81.3644L61.6393 81.3583L61.6308 81.3527L61.4666 81.6038ZM60.0288 68.4434L59.7558 68.3191L59.7554 68.3199L60.0288 68.4434ZM55.7901 77.6111L55.5189 77.4828L55.4023 77.7292L55.6365 77.8688L55.7901 77.6111ZM59.9075 80.4438L59.7279 80.6842L59.8232 80.7553L59.9412 80.7419L59.9075 80.4438ZM89.7973 60.9396L89.5034 60.8791L89.5032 60.8801L89.7973 60.9396ZM68.6075 51.4033L68.5401 51.111L68.4225 51.1381L68.3565 51.2391L68.6075 51.4033ZM52.8051 80.1892L52.9168 79.9108L52.9102 79.9081L52.9034 79.9058L52.8051 80.1892ZM53.2545 80.3074L53.2199 80.6055L53.426 80.6294L53.5211 80.4449L53.2545 80.3074ZM54.351 78.0397L54.6228 78.1667L54.7498 77.8949L54.4781 77.7679L54.351 78.0397ZM54.3652 80.5421L54.0963 80.409L53.9048 80.7959L54.3342 80.8405L54.3652 80.5421ZM58.3275 80.6046L58.3479 80.9039L59.182 80.8469L58.502 80.3606L58.3275 80.6046ZM55.3094 78.561L55.4586 78.3007L55.169 78.1348L55.0348 78.4403L55.3094 78.561ZM44.4591 95.9067L44.708 96.0742L44.9586 95.7019L44.5188 95.6126L44.4591 95.9067ZM99.5899 91.9116L100.055 92.9182L100.6 92.6664L100.135 91.6598L99.5899 91.9116ZM100.204 92.5188C92.2059 96.1239 84.667 95.2608 77.9896 92.6407C71.3023 90.0166 65.4963 85.6373 60.9785 82.2263L60.6169 82.7051C65.1267 86.11 70.995 90.5406 77.7704 93.1992C84.5558 95.8617 92.2681 96.754 100.451 93.0658L100.204 92.5188ZM60.9763 82.2247C60.5726 81.9254 60.1787 81.6333 59.8262 81.3343L59.4381 81.7919C59.8083 82.1059 60.2186 82.4099 60.6191 82.7067L60.9763 82.2247ZM59.6035 81.2644C57.3698 81.4787 55.399 81.4705 53.897 81.2445L53.8077 81.8378C55.3749 82.0736 57.3986 82.0787 59.6608 81.8617L59.6035 81.2644ZM53.5835 81.4081C51.2889 86.0434 48.7436 90.6858 45.9612 94.9946L46.4652 95.3201C49.2631 90.9873 51.8195 86.324 54.1212 81.6743L53.5835 81.4081ZM46.1534 95.4514C48.7162 95.9726 51.3559 96.6481 54.1476 97.4212L54.3077 96.843C51.5098 96.0681 48.8552 95.3886 46.273 94.8634L46.1534 95.4514ZM53.9375 97.0557L53.6537 98.1343L54.2339 98.287L54.5178 97.2084L53.9375 97.0557ZM54.0254 97.922C51.086 97.0906 48.301 96.3961 45.6302 95.8475L45.5095 96.4352C48.1633 96.9803 50.9338 97.6711 53.8621 98.4993L54.0254 97.922ZM45.3205 95.9746C38.9948 105.434 31.3515 112.994 21.6642 115.021L21.7871 115.608C31.7088 113.532 39.4666 105.808 45.8192 96.3081L45.3205 95.9746ZM21.6642 115.021C13.5739 116.714 7.69412 115.593 4.24374 113.2C0.811254 110.819 -0.244779 107.17 1.28426 103.644C2.82398 100.092 7.01583 96.6015 14.2247 94.6895C21.4268 92.7794 31.6064 92.4572 45.0421 95.2166L45.1628 94.6289C31.665 91.8567 21.3873 92.1691 14.0709 94.1096C6.76121 96.0482 2.37314 99.6239 0.733779 103.405C-0.916252 107.211 0.249482 111.16 3.90181 113.693C7.53623 116.213 13.6043 117.321 21.7871 115.608L21.6642 115.021ZM45.3536 95.0869C48.1607 90.7939 50.7173 86.1299 53.051 81.4315L52.5136 81.1646C50.1867 85.8495 47.6416 90.4913 44.8514 94.7585L45.3536 95.0869ZM52.8169 81C52.7785 80.9956 52.7314 80.984 52.674 80.9667C52.6455 80.9581 52.619 80.9495 52.5893 80.9401C52.5618 80.9313 52.5297 80.9213 52.4991 80.9133L52.3465 81.4935C52.3867 81.5041 52.4184 81.5163 52.5006 81.5411C52.5679 81.5614 52.6556 81.5853 52.7478 81.596L52.8169 81ZM52.5204 80.9197C51.3214 80.507 50.7202 79.5833 50.6811 78.7397C50.6426 77.912 51.1397 77.1073 52.28 76.8687L52.1571 76.2814C50.7344 76.5791 50.0294 77.6397 50.0817 78.7676C50.1333 79.8795 50.9159 81.0019 52.3252 81.4871L52.5204 80.9197ZM52.28 76.8687C52.9136 76.7361 53.688 76.9057 54.6625 77.4059L54.9365 76.8721C53.9128 76.3466 52.9881 76.1075 52.1571 76.2814L52.28 76.8687ZM55.0694 77.2699C56.5845 74.1462 57.9771 71.0484 59.3117 68.0948L58.7649 67.8478C57.4294 70.8035 56.0403 73.8932 54.5296 77.0081L55.0694 77.2699ZM59.311 68.0964C62.2006 61.7956 64.8151 56.0851 67.3346 51.9647L66.8227 51.6517C64.2803 55.8096 61.6494 61.5582 58.7656 67.8462L59.311 68.0964ZM67.0004 51.5186C62.0867 52.846 57.1632 55.0727 53.1439 58.0773C49.1256 61.0811 45.9942 64.8756 44.7013 69.3417L45.2777 69.5086C46.5234 65.2053 49.5532 61.5106 53.5031 58.5579C57.4521 55.6059 62.3039 53.4089 67.1569 52.0978L67.0004 51.5186ZM45.0708 69.1364L44.033 68.844L43.8703 69.4215L44.9082 69.7139L45.0708 69.1364ZM44.2399 69.2159C45.544 64.6909 48.8219 60.7743 53.1047 57.661C57.3859 54.5488 62.6516 52.2542 67.89 50.968L67.747 50.3853C62.4438 51.6874 57.1045 54.0115 52.7519 57.1756C48.4009 60.3385 45.0161 64.3559 43.6634 69.0497L44.2399 69.2159ZM68.0696 50.8408C69.4756 48.6906 70.8918 47.1138 72.2646 46.2544L71.9462 45.7459C70.4656 46.6727 68.9922 48.3334 67.5674 50.5125L68.0696 50.8408ZM71.852 46.1608L72.4225 47.0606L72.9293 46.7393L72.3588 45.8395L71.852 46.1608ZM72.5143 46.6472C71.3829 47.3705 70.2423 48.5719 69.1127 50.1369L69.5992 50.488C70.7081 48.9517 71.7966 47.8181 72.8375 47.1527L72.5143 46.6472ZM69.4184 50.6059C75.4875 49.3146 81.3247 49.3947 85.362 51.0745C87.3754 51.9123 88.9257 53.141 89.8484 54.7809C90.7698 56.4186 91.0844 58.5004 90.5647 61.0829L91.1529 61.2012C91.6949 58.5082 91.377 56.2742 90.3713 54.4867C89.3669 52.7015 87.6957 51.3957 85.5925 50.5206C81.3965 48.7747 75.4207 48.7154 69.2935 50.019L69.4184 50.6059ZM90.5649 61.0817C89.4624 66.452 85.5552 70.7613 80.5591 74.0155C75.566 77.2678 69.5207 79.4419 64.2189 80.5514L64.3418 81.1387C69.699 80.0176 75.8178 77.8199 80.8866 74.5183C85.9525 71.2186 90.0051 66.7917 91.1527 61.2024L90.5649 61.0817ZM64.2189 80.5514C63.1683 80.7713 62.1103 80.9505 61.1261 81.0724L61.1998 81.6678C62.2024 81.5437 63.2769 81.3616 64.3418 81.1387L64.2189 80.5514ZM60.9527 81.5841C61.0828 81.712 61.2037 81.7903 61.3024 81.8549L61.6308 81.3527C61.5328 81.2886 61.4568 81.2383 61.3732 81.1561L60.9527 81.5841ZM61.2859 81.8432C65.7952 85.2478 71.5261 89.5798 78.0909 92.171C84.666 94.7664 92.095 95.6225 99.9857 92.0591L99.7388 91.5123C92.0327 94.9923 84.7777 94.1654 78.3112 91.6129C71.8342 89.0564 66.1657 84.7757 61.6474 81.3644L61.2859 81.8432ZM59.7554 68.3199C58.4211 71.2731 56.9903 74.3737 55.5189 77.4828L56.0612 77.7394C57.5343 74.627 58.9665 71.5231 60.3022 68.567L59.7554 68.3199ZM55.6365 77.8688C56.8358 78.5836 58.2204 79.5582 59.7279 80.6842L60.087 80.2035C58.5746 79.0739 57.1701 78.0843 55.9437 77.3534L55.6365 77.8688ZM59.9412 80.7419C61.2758 80.5907 62.6855 80.3813 64.1204 80.081L63.9975 79.4937C62.5847 79.7894 61.1939 79.9961 59.8737 80.1457L59.9412 80.7419ZM64.1204 80.081C69.3953 78.977 75.3393 76.8587 80.2363 73.6994C85.13 70.5422 89.0148 66.3204 90.0913 60.999L89.5032 60.8801C88.4716 65.9791 84.7354 70.0828 79.911 73.1952C75.0899 76.3056 69.2188 78.401 63.9975 79.4937L64.1204 80.081ZM90.0911 61C90.6036 58.5102 90.265 56.4475 89.2486 54.8076C88.235 53.1723 86.5694 51.993 84.4925 51.222C80.3469 49.683 74.4836 49.7391 68.5401 51.111L68.675 51.6956C74.5597 50.3373 80.2914 50.3024 84.2837 51.7845C86.2757 52.524 87.8148 53.6333 88.7386 55.1237C89.6596 56.6095 89.9911 58.5098 89.5034 60.8791L90.0911 61ZM68.3565 51.2391C65.671 55.346 62.8941 61.4276 59.7558 68.3191L60.3019 68.5678C63.4479 61.6595 66.204 55.6273 68.8586 51.5675L68.3565 51.2391ZM52.6933 80.4676C52.8537 80.532 53.0594 80.5868 53.2199 80.6055L53.289 80.0094C53.1883 79.9978 53.0345 79.958 52.9168 79.9108L52.6933 80.4676ZM53.5211 80.4449C53.9168 79.6773 54.2712 78.919 54.6228 78.1667L54.0793 77.9126C53.7269 78.6665 53.3774 79.4144 52.9878 80.17L53.5211 80.4449ZM54.4781 77.7679C53.7099 77.4088 52.9651 77.2164 52.3785 77.3392L52.5014 77.9264C52.8911 77.8449 53.486 77.9665 54.224 78.3114L54.4781 77.7679ZM52.3785 77.3392C51.9562 77.4275 51.6263 77.6229 51.4146 77.9021C51.2024 78.182 51.1282 78.5217 51.1751 78.8587C51.2683 79.5277 51.8263 80.167 52.7067 80.4726L52.9034 79.9058C52.1811 79.655 51.8242 79.1694 51.7694 78.7759C51.7423 78.5816 51.7858 78.4057 51.8928 78.2645C52.0004 78.1226 52.1913 77.9913 52.5014 77.9264L52.3785 77.3392ZM54.3342 80.8405C55.4348 80.9547 56.822 81.0083 58.3479 80.9039L58.307 80.3053C56.8186 80.4071 55.4659 80.3547 54.3961 80.2437L54.3342 80.8405ZM58.502 80.3606C57.3593 79.5436 56.3435 78.8077 55.4586 78.3007L55.1603 78.8213C56.0124 79.3096 56.9985 80.0232 58.153 80.8487L58.502 80.3606ZM55.0348 78.4403C54.7504 79.0876 54.4252 79.7446 54.0963 80.409L54.634 80.6752C54.9618 80.0132 55.2932 79.3437 55.5841 78.6816L55.0348 78.4403ZM21.5657 114.55C31.0387 112.568 38.539 105.239 44.708 96.0742L44.2102 95.7391C38.07 104.862 30.684 112.029 21.4428 113.963L21.5657 114.55ZM44.5188 95.6126C31.5839 92.9887 21.7401 93.2214 14.7263 94.9642C7.72068 96.7048 3.50035 99.9641 1.89466 103.426C1.0902 105.161 0.94584 106.943 1.44287 108.586C1.93954 110.229 3.06958 111.711 4.77447 112.863C8.17934 115.164 13.8829 116.158 21.5657 114.55L21.4428 113.963C13.8493 115.552 8.3315 114.543 5.11041 112.366C3.50232 111.279 2.46824 109.904 2.01718 108.413C1.56649 106.922 1.69081 105.292 2.43898 103.679C3.93855 100.445 7.9593 97.2638 14.871 95.5464C21.7745 93.8311 31.5242 93.5888 44.3995 96.2007L44.5188 95.6126ZM113.654 76.9244L113.901 76.7547L113.731 76.5063L113.483 76.6777L113.654 76.9244ZM114.265 77.8156L114.435 78.0624L114.681 77.8925L114.512 77.646L114.265 77.8156ZM98.11 80.7719L98.4041 80.8311L97.8644 80.5995L98.11 80.7719ZM98.0693 78.9544L97.8219 79.1241L98.0752 79.4935L98.3204 79.1186L98.0693 78.9544ZM99.0987 77.3801L99.2629 77.129L99.0118 76.9648L98.8476 77.2159L99.0987 77.3801ZM99.6891 77.7661L99.5249 78.0172L99.5535 78.0359L99.5856 78.0477L99.6891 77.7661ZM100.057 77.9014L100.337 78.0094L100.447 77.725L100.161 77.6199L100.057 77.9014ZM97.3853 79.9469L97.6305 80.1196L97.7223 79.9893L97.6657 79.8404L97.3853 79.9469ZM113.406 77.0941L114.017 77.9853L114.512 77.646L113.901 76.7547L113.406 77.0941ZM114.094 77.5689C111.983 79.0282 109.443 80.7032 107.088 82.0845C104.719 83.4738 102.578 84.5411 101.25 84.819L101.373 85.4063C102.811 85.1053 105.032 83.9858 107.391 82.6021C109.764 81.2105 112.317 79.5264 114.435 78.0624L114.094 77.5689ZM101.25 84.819C100.395 84.9981 99.7141 84.9369 99.2263 84.6971C98.7501 84.463 98.4213 84.0414 98.2891 83.4097L97.7018 83.5326C97.8676 84.3247 98.3018 84.9112 98.9616 85.2356C99.6098 85.5542 100.438 85.6019 101.373 85.4063L101.25 84.819ZM98.2891 83.4097C98.1398 82.6966 98.2193 81.7491 98.4041 80.8311L97.8159 80.7127C97.6259 81.6566 97.5275 82.6997 97.7018 83.5326L98.2891 83.4097ZM97.8644 80.5995C97.1001 81.6883 96.1835 82.8768 95.2607 83.8323C94.7993 84.3101 94.3413 84.7245 93.9045 85.0383C93.4648 85.3541 93.0634 85.5557 92.7142 85.6287L92.8372 86.216C93.3016 86.1188 93.7817 85.8652 94.2545 85.5256C94.7302 85.1839 95.2157 84.7427 95.6923 84.2491C96.6455 83.2621 97.5823 82.0457 98.3555 80.9442L97.8644 80.5995ZM92.7142 85.6287C92.4313 85.6879 92.1581 85.5879 91.9139 85.3381C91.6654 85.0838 91.4649 84.6875 91.3673 84.2213L90.7801 84.3442C90.8953 84.8951 91.139 85.4037 91.4849 85.7575C91.835 86.1158 92.3065 86.3271 92.8372 86.216L92.7142 85.6287ZM91.3673 84.2213C91.133 83.1018 91.5025 81.7168 92.2503 80.5342C92.9984 79.3511 94.0816 78.4393 95.195 78.2063L95.0721 77.619C93.7446 77.8969 92.5424 78.9497 91.7431 80.2136C90.9435 81.4781 90.5035 83.0227 90.7801 84.3442L91.3673 84.2213ZM95.195 78.2063C96.277 77.9799 97.2904 78.3491 97.8219 79.1241L98.3167 78.7847C97.6259 77.7773 96.3498 77.3517 95.0721 77.619L95.195 78.2063ZM98.3204 79.1186L99.3498 77.5443L98.8476 77.2159L97.8182 78.7902L98.3204 79.1186ZM98.9345 77.6312L99.5249 78.0172L99.8533 77.515L99.2629 77.129L98.9345 77.6312ZM99.5856 78.0477L99.9536 78.183L100.161 77.6199L99.7926 77.4846L99.5856 78.0477ZM99.7772 77.7935C99.6222 78.1956 99.286 79.1588 99.0287 80.2196C98.7753 81.2648 98.5825 82.4653 98.7595 83.3112L99.3468 83.1883C99.2003 82.4883 99.3581 81.4073 99.6118 80.361C99.8617 79.3305 100.189 78.3925 100.337 78.0094L99.7772 77.7935ZM98.7595 83.3112C98.8598 83.7903 99.1053 84.156 99.5508 84.3348C99.9657 84.5014 100.505 84.4839 101.152 84.3486L101.029 83.7613C100.414 83.8899 100.02 83.8767 99.7743 83.778C99.5592 83.6917 99.4168 83.5228 99.3468 83.1883L98.7595 83.3112ZM101.152 84.3486C102.22 84.1251 103.923 83.3396 106.071 82.1208C108.23 80.8956 110.87 79.2141 113.824 77.1711L113.483 76.6777C110.539 78.7141 107.914 80.3851 105.775 81.5989C103.624 82.819 101.995 83.5591 101.029 83.7613L101.152 84.3486ZM91.8378 84.1228C91.8915 84.3795 91.9888 84.6138 92.0869 84.7858C92.1354 84.8709 92.1895 84.9502 92.2457 85.0116C92.2729 85.0415 92.3097 85.0771 92.3549 85.106C92.3897 85.1283 92.4881 85.185 92.6158 85.1583L92.4929 84.571C92.6003 84.5485 92.6731 84.5973 92.6783 84.6007C92.6941 84.6107 92.6974 84.6165 92.6885 84.6068C92.6724 84.5892 92.6434 84.5505 92.6081 84.4886C92.5385 84.3665 92.465 84.1907 92.4251 83.9999L91.8378 84.1228ZM92.6158 85.1583C93.0174 85.0742 93.4382 84.83 93.8522 84.5089C94.2712 84.184 94.7077 83.7609 95.1419 83.2876C96.0105 82.3408 96.8912 81.1694 97.6305 80.1196L97.14 79.7741C96.4062 80.8161 95.5427 81.9632 94.6998 82.882C94.2782 83.3415 93.8671 83.7381 93.4845 84.0348C93.0971 84.3352 92.7625 84.5145 92.4929 84.571L92.6158 85.1583ZM97.6657 79.8404C97.3203 78.9308 96.3062 78.4649 95.2935 78.6768L95.4164 79.2641C96.1937 79.1014 96.8826 79.4681 97.1048 80.0534L97.6657 79.8404ZM95.2935 78.6768C94.2635 78.8923 93.3036 79.786 92.6589 80.8136C92.0134 81.8424 91.6238 83.1005 91.8378 84.1228L92.4251 83.9999C92.2559 83.1915 92.5628 82.0957 93.1671 81.1325C93.7722 80.1681 94.6156 79.4317 95.4164 79.2641L95.2935 78.6768ZM124.193 68.7312L124.405 68.9434L124.615 68.7338L124.408 68.5217L124.193 68.7312ZM122.367 70.5572L122.152 70.7667L122.364 70.9841L122.579 70.7693L122.367 70.5572ZM121.61 69.7813L121.398 69.5692L121.188 69.7787L121.395 69.9908L121.61 69.7813ZM123.436 67.9554L123.651 67.7459L123.439 67.5285L123.224 67.7433L123.436 67.9554ZM140.08 71.3939L140.315 71.2076L140.13 70.9734L139.895 71.158L140.08 71.3939ZM140.772 72.2681L140.956 72.5055L141.196 72.3198L141.008 72.0818L140.772 72.2681ZM117.382 75.5497L117.67 75.6336L117.925 74.7568L117.2 75.3113L117.382 75.5497ZM114.247 77.8193L114 77.989L114.173 78.2416L114.422 78.0632L114.247 77.8193ZM113.636 76.9281L113.465 76.6816L113.22 76.8517L113.389 77.0977L113.636 76.9281ZM118.995 72.7066L119.229 72.8943L119.238 72.883L119.246 72.8708L118.995 72.7066ZM119.027 72.6575L119.211 72.4205L118.954 72.221L118.776 72.4933L119.027 72.6575ZM119.889 73.3264L120.126 73.5098L120.309 73.2729L120.073 73.0894L119.889 73.3264ZM123.981 68.5191L122.155 70.345L122.579 70.7693L124.405 68.9434L123.981 68.5191ZM122.582 70.3477L121.825 69.5719L121.395 69.9908L122.152 70.7667L122.582 70.3477ZM121.822 69.9935L123.648 68.1675L123.224 67.7433L121.398 69.5692L121.822 69.9935ZM123.221 68.1649L123.978 68.9407L124.408 68.5217L123.651 67.7459L123.221 68.1649ZM139.845 71.5802L140.537 72.4544L141.008 72.0818L140.315 71.2076L139.845 71.5802ZM140.589 72.0308C136.851 74.9211 130.498 78.2309 125.589 79.2582L125.712 79.8455C130.73 78.7954 137.164 75.4374 140.956 72.5055L140.589 72.0308ZM125.589 79.2582C123.08 79.7833 121.17 79.8753 119.837 79.5522C119.176 79.3917 118.669 79.1319 118.301 78.7833C117.935 78.4369 117.689 77.9881 117.57 77.4211L116.983 77.544C117.124 78.2178 117.424 78.7801 117.889 79.2192C118.351 79.6563 118.96 79.9567 119.696 80.1353C121.16 80.4903 123.177 80.3762 125.712 79.8455L125.589 79.2582ZM117.57 77.4211C117.454 76.8652 117.484 76.2711 117.67 75.6336L117.094 75.4657C116.884 76.185 116.844 76.8795 116.983 77.544L117.57 77.4211ZM117.2 75.3113C116.362 75.9509 115.332 76.6727 114.073 77.5755L114.422 78.0632C115.673 77.1665 116.717 76.4351 117.564 75.7881L117.2 75.3113ZM114.495 77.6496L113.884 76.7584L113.389 77.0977L114 77.989L114.495 77.6496ZM113.807 77.1745C115.386 76.0786 116.588 75.1978 117.469 74.4998C118.345 73.806 118.92 73.2799 119.229 72.8943L118.761 72.519C118.498 72.8477 117.969 73.3382 117.096 74.0295C116.229 74.7165 115.038 75.5893 113.465 76.6816L113.807 77.1745ZM119.246 72.8708L119.278 72.8216L118.776 72.4933L118.744 72.5425L119.246 72.8708ZM118.843 72.8945L119.705 73.5634L120.073 73.0894L119.211 72.4205L118.843 72.8945ZM119.652 73.1429C118.275 74.925 117.782 76.0845 118.041 77.3226L118.628 77.1997C118.427 76.241 118.763 75.2736 120.126 73.5098L119.652 73.1429ZM118.041 77.3226C118.144 77.8145 118.388 78.2254 118.776 78.5396C119.159 78.8497 119.667 79.0531 120.284 79.1648C121.512 79.3871 123.243 79.2583 125.491 78.7878L125.368 78.2005C123.141 78.6665 121.503 78.7756 120.391 78.5744C119.839 78.4744 119.435 78.3008 119.153 78.0732C118.877 77.8496 118.704 77.5622 118.628 77.1997L118.041 77.3226ZM125.491 78.7878C130.345 77.7718 136.554 74.5462 140.265 71.6298L139.895 71.158C136.24 74.0298 130.114 77.2071 125.368 78.2005L125.491 78.7878ZM168.086 66.5521L168.265 66.7923L168.512 66.6075L168.321 66.3658L168.086 66.5521ZM150.464 73.2548L150.537 72.9638L150.33 72.9122L150.213 73.0907L150.464 73.2548ZM141.638 71.6624L141.915 71.5462L141.777 71.2189L141.477 71.409L141.638 71.6624ZM140.747 72.2735L140.499 72.4432L140.663 72.6818L140.907 72.5269L140.747 72.2735ZM140.136 71.3823L139.969 71.1325L139.716 71.301L139.888 71.5519L140.136 71.3823ZM141.245 70.598L141.411 70.8478L141.581 70.7353L141.539 70.5365L141.245 70.598ZM141.087 68.4229L140.789 68.3935L140.788 68.399L141.087 68.4229ZM144.063 68.4371L143.895 68.6859L144.077 68.8085L144.249 68.6723L144.063 68.4371ZM148.19 65.0256L148.383 65.255L148.473 65.1796L148.487 65.0635L148.19 65.0256ZM149.66 63.5288L149.599 63.2352L149.59 63.2371L149.581 63.2395L149.66 63.5288ZM150.265 64.5913L150.093 64.3457L150.08 64.3545L150.068 64.3645L150.265 64.5913ZM149.367 65.3738L149.159 65.1573L149.062 65.251L149.067 65.3861L149.367 65.3738ZM149.8 66.4296L149.553 66.5993L149.557 66.605L149.8 66.4296ZM150.977 72.2558L150.694 72.1563L150.586 72.4631L150.901 72.5459L150.977 72.2558ZM167.393 65.6778L167.628 65.4916L167.446 65.2611L167.211 65.439L167.393 65.6778ZM148.909 67.0408L149.151 66.8628L149.144 66.8545L148.909 67.0408ZM148.396 66.2139L148.662 66.0741L148.485 65.7379L148.199 65.9881L148.396 66.2139ZM145.006 69.089L144.817 68.8563L144.515 69.1016L144.829 69.3311L145.006 69.089ZM149.931 71.9227L149.825 72.2036L150.106 72.309L150.212 72.0279L149.931 71.9227ZM142.132 68.544L141.853 68.4322L141.837 68.4738L141.833 68.5185L142.132 68.544ZM142.201 69.8884L141.907 69.9499L142.002 70.4017L142.376 70.1318L142.201 69.8884ZM143.189 69.1297L143.364 69.373L143.702 69.1297L143.364 68.8863L143.189 69.1297ZM149.409 72.8811L149.643 73.0687L149.903 72.7447L149.514 72.5999L149.409 72.8811ZM144.132 69.7815L144.309 69.5394L144.128 69.4071L143.95 69.543L144.132 69.7815ZM142.521 71.0105L142.339 70.772L142.162 70.9068L142.24 71.1151L142.521 71.0105ZM167.906 66.3119C164.128 69.139 159.342 72.1944 154.855 73.1335L154.978 73.7208C159.604 72.7527 164.48 69.6246 168.265 66.7923L167.906 66.3119ZM154.855 73.1335C153.366 73.445 151.897 73.3028 150.537 72.9638L150.392 73.5459C151.809 73.8995 153.375 74.0563 154.978 73.7208L154.855 73.1335ZM150.213 73.0907C149.586 74.0494 148.508 74.8014 147.031 75.1107L147.154 75.698C148.768 75.3601 149.991 74.5266 150.715 73.419L150.213 73.0907ZM147.031 75.1107C146.055 75.3148 145.03 75.0204 144.112 74.3658C143.194 73.7114 142.403 72.7092 141.915 71.5462L141.361 71.7785C141.889 73.0357 142.747 74.1301 143.763 74.8544C144.779 75.5786 145.973 75.9451 147.154 75.698L147.031 75.1107ZM141.477 71.409C141.319 71.5091 141.165 71.6192 141.018 71.7235C140.869 71.8297 140.728 71.9301 140.586 72.0202L140.907 72.5269C141.065 72.4267 141.22 72.3167 141.366 72.2123C141.515 72.1062 141.657 72.0057 141.799 71.9157L141.477 71.409ZM140.994 72.1039L140.383 71.2126L139.888 71.5519L140.499 72.4432L140.994 72.1039ZM140.302 71.6321C140.494 71.504 140.684 71.3661 140.867 71.2327C141.052 71.0979 141.231 70.9676 141.411 70.8478L141.079 70.3482C140.887 70.4762 140.697 70.6141 140.514 70.7476C140.329 70.8823 140.15 71.0126 139.969 71.1325L140.302 71.6321ZM141.539 70.5365C141.39 69.8268 141.33 69.1473 141.386 68.4468L140.788 68.399C140.727 69.1668 140.794 69.9046 140.952 70.6594L141.539 70.5365ZM141.386 68.4523C141.421 68.0982 141.504 67.9105 141.588 67.8169C141.657 67.74 141.756 67.6945 141.938 67.7103C142.133 67.7271 142.395 67.8139 142.734 67.9839C143.068 68.1517 143.455 68.3893 143.895 68.6859L144.23 68.1883C143.781 67.8856 143.37 67.632 143.003 67.4477C142.64 67.2654 142.297 67.1391 141.99 67.1125C141.669 67.0848 141.367 67.1657 141.142 67.4158C140.932 67.649 140.829 67.9887 140.789 68.3935L141.386 68.4523ZM144.249 68.6723C145.638 67.5724 146.976 66.4405 148.383 65.255L147.997 64.7962C146.588 65.9834 145.257 67.1089 143.877 68.202L144.249 68.6723ZM148.487 65.0635C148.544 64.6168 148.834 64.3088 149.145 64.1016C149.299 63.9992 149.451 63.9272 149.564 63.8809C149.621 63.8579 149.667 63.8416 149.697 63.8314C149.713 63.8262 149.724 63.8226 149.732 63.8205C149.735 63.8194 149.738 63.8187 149.739 63.8183C149.74 63.8181 149.74 63.818 149.74 63.818C149.74 63.818 149.74 63.818 149.74 63.8181C149.74 63.8181 149.74 63.8181 149.74 63.8181C149.74 63.8181 149.739 63.8182 149.739 63.8182C149.739 63.8182 149.739 63.8182 149.66 63.5288C149.581 63.2395 149.581 63.2395 149.581 63.2395C149.581 63.2395 149.581 63.2396 149.581 63.2396C149.58 63.2397 149.58 63.2397 149.58 63.2398C149.579 63.2399 149.579 63.24 149.578 63.2402C149.577 63.2406 149.576 63.241 149.574 63.2415C149.57 63.2426 149.565 63.2441 149.559 63.2459C149.547 63.2496 149.53 63.2549 149.508 63.2619C149.466 63.2759 149.408 63.2968 149.337 63.3255C149.198 63.3826 149.009 63.4721 148.813 63.602C148.426 63.8596 147.98 64.3 147.892 64.9876L148.487 65.0635ZM149.722 63.8225L149.762 63.814L149.639 63.2267L149.599 63.2352L149.722 63.8225ZM149.762 63.814C149.935 63.7779 150.082 63.8664 150.155 64.0069C150.227 64.146 150.2 64.2702 150.093 64.3457L150.437 64.837C150.848 64.5492 150.864 64.0698 150.687 63.7302C150.512 63.3919 150.118 63.1266 149.639 63.2267L149.762 63.814ZM150.068 64.3645C149.758 64.6334 149.449 64.879 149.159 65.1573L149.575 65.5902C149.85 65.3255 150.125 65.1093 150.461 64.8182L150.068 64.3645ZM149.067 65.3861C149.081 65.7141 149.228 66.126 149.553 66.5993L150.048 66.26C149.761 65.842 149.674 65.5386 149.667 65.3614L149.067 65.3861ZM149.557 66.605C150.949 68.5361 151.267 70.5264 150.694 72.1563L151.26 72.3552C151.911 70.5015 151.524 68.3082 150.043 66.2542L149.557 66.605ZM150.901 72.5459C152.109 72.8638 153.404 72.9461 154.757 72.663L154.634 72.0757C153.383 72.3376 152.182 72.2627 151.053 71.9656L150.901 72.5459ZM154.757 72.663C159.22 71.7288 163.87 68.7327 167.575 65.9167L167.211 65.439C163.516 68.2483 158.957 71.1709 154.634 72.0757L154.757 72.663ZM167.158 65.8641L167.85 66.7383L168.321 66.3658L167.628 65.4916L167.158 65.8641ZM149.144 66.8545C148.932 66.5873 148.803 66.3422 148.662 66.0741L148.131 66.3536C148.271 66.6211 148.424 66.9114 148.674 67.2271L149.144 66.8545ZM148.199 65.9881C147.051 66.9916 145.938 67.9445 144.817 68.8563L145.195 69.3218C146.324 68.4038 147.444 67.4457 148.594 66.4397L148.199 65.9881ZM144.829 69.3311C146.188 70.3252 147.896 71.4799 149.825 72.2036L150.036 71.6418C148.187 70.9481 146.532 69.8341 145.183 68.8469L144.829 69.3311ZM150.212 72.0279C150.773 70.5281 150.441 68.6156 149.15 66.8629L148.667 67.2186C149.869 68.8511 150.123 70.5528 149.65 71.8175L150.212 72.0279ZM141.833 68.5185C141.794 68.9733 141.806 69.4679 141.907 69.9499L142.495 69.827C142.408 69.4139 142.396 68.9794 142.431 68.5695L141.833 68.5185ZM142.376 70.1318C142.549 70.0074 142.718 69.8733 142.881 69.7442C143.046 69.6136 143.205 69.488 143.364 69.373L143.013 68.8863C142.841 69.0106 142.671 69.1448 142.509 69.2739C142.344 69.4045 142.185 69.53 142.026 69.645L142.376 70.1318ZM143.364 68.8863C142.852 68.517 142.579 68.3187 142.432 68.2379C142.393 68.2166 142.343 68.1918 142.287 68.1778C142.23 68.1631 142.13 68.1517 142.029 68.2072C141.935 68.2588 141.893 68.3396 141.879 68.3693C141.871 68.3867 141.865 68.4029 141.861 68.4115C141.857 68.4234 141.856 68.426 141.853 68.4322L142.41 68.6557C142.415 68.6446 142.42 68.6306 142.421 68.6272C142.424 68.6204 142.423 68.6224 142.421 68.6271C142.419 68.6313 142.392 68.6927 142.317 68.7336C142.235 68.7784 142.162 68.7648 142.14 68.7595C142.121 68.7547 142.119 68.7505 142.143 68.7638C142.248 68.8214 142.475 68.9854 143.013 69.373L143.364 68.8863ZM146.932 74.6402C148.089 74.3981 149.022 73.8446 149.643 73.0687L149.175 72.6935C148.652 73.3462 147.849 73.8353 146.809 74.0529L146.932 74.6402ZM149.514 72.5999C147.44 71.8283 145.666 70.5325 144.309 69.5394L143.955 70.0237C145.305 71.0118 147.142 72.3576 149.305 73.1623L149.514 72.5999ZM143.95 69.543L142.339 70.772L142.703 71.249L144.314 70.0201L143.95 69.543ZM142.24 71.1151C142.645 72.2059 143.336 73.176 144.16 73.8305C144.981 74.4834 145.963 74.843 146.932 74.6402L146.809 74.0529C146.07 74.2077 145.265 73.9433 144.533 73.3608C143.802 72.78 143.173 71.9032 142.802 70.9059L142.24 71.1151ZM187.935 61.3789L188.176 61.2007L187.991 60.9502L187.748 61.1444L187.935 61.3789ZM188.586 62.2616L188.774 62.4962L188.999 62.3159L188.828 62.0834L188.586 62.2616ZM172.445 70.3533L172.445 70.0533L172.443 70.0533L172.445 70.3533ZM167.224 66.3077L167.521 66.2632L167.52 66.2547L167.518 66.2462L167.224 66.3077ZM167.207 66.2263L166.909 66.2599L166.911 66.2739L166.914 66.2877L167.207 66.2263ZM169.023 67.7997L169.047 67.5007L168.36 67.4458L168.788 67.986L169.023 67.7997ZM172.427 69.253L172.426 68.953L172.421 68.9531L172.427 69.253ZM168.282 66.0863L167.984 66.1189L167.986 66.1432L167.993 66.1667L168.282 66.0863ZM187.693 61.5571L188.345 62.4398L188.828 62.0834L188.176 61.2007L187.693 61.5571ZM188.399 62.0271C186.242 63.7477 183.442 65.7591 180.578 67.3391C177.704 68.9246 174.807 70.052 172.445 70.0533L172.445 70.6533C174.966 70.6519 177.974 69.4606 180.868 67.8644C183.771 66.2628 186.6 64.2297 188.774 62.4962L188.399 62.0271ZM172.443 70.0533C169.454 70.0722 167.819 68.2564 167.521 66.2632L166.928 66.3521C167.27 68.641 169.159 70.6741 172.447 70.6533L172.443 70.0533ZM167.518 66.2462L167.501 66.1648L166.914 66.2877L166.931 66.3691L167.518 66.2462ZM167.505 66.1927C167.275 64.1476 168.496 61.8892 171.477 61.2654L171.354 60.6781C168.07 61.3654 166.644 63.9075 166.909 66.2599L167.505 66.1927ZM171.477 61.2654C172.571 61.0364 173.489 61.5914 173.678 62.494L174.266 62.3711C173.995 61.0768 172.701 60.3962 171.354 60.6781L171.477 61.2654ZM173.678 62.494C173.961 63.8443 173.342 65.1309 172.349 66.0788C171.35 67.0325 170.037 67.5798 169.047 67.5007L168.999 68.0988C170.211 68.1956 171.683 67.5443 172.764 66.5128C173.85 65.4756 174.605 63.9907 174.266 62.3711L173.678 62.494ZM168.788 67.986C169.542 68.9389 170.781 69.5849 172.433 69.5529L172.421 68.9531C170.943 68.9816 169.888 68.409 169.258 67.6134L168.788 67.986ZM172.428 69.553C174.778 69.5447 177.628 68.4072 180.405 66.8676C183.192 65.3222 185.948 63.347 188.122 61.6134L187.748 61.1444C185.59 62.8649 182.863 64.8188 180.114 66.3429C177.355 67.8728 174.616 68.9453 172.426 68.953L172.428 69.553ZM171.576 61.7358C168.951 62.2851 167.78 64.2553 167.984 66.1189L168.58 66.0536C168.412 64.5132 169.36 62.8125 171.698 62.3231L171.576 61.7358ZM167.993 66.1667C168.077 66.469 168.254 66.6983 168.5 66.8449C168.739 66.9875 169.023 67.0404 169.313 67.0349C169.89 67.0239 170.562 66.782 171.176 66.4002C172.387 65.6462 173.549 64.221 173.208 62.5925L172.621 62.7154C172.884 63.9754 171.986 65.1892 170.859 65.8908C170.303 66.2368 169.736 66.4267 169.302 66.435C169.086 66.439 168.922 66.3983 168.807 66.3296C168.698 66.2649 168.615 66.1651 168.571 66.0059L167.993 66.1667ZM173.208 62.5925C173.059 61.8812 172.32 61.58 171.576 61.7358L171.698 62.3231C172.256 62.2065 172.565 62.4503 172.621 62.7154L173.208 62.5925ZM248.754 31.6224L248.464 31.5454L248.464 31.546L248.754 31.6224ZM264.037 0.354858L264.33 0.293407L264.269 -0.00023126L263.975 0.0612188L264.037 0.354858ZM264.258 1.41261L264.32 1.70625L264.613 1.6448L264.552 1.35116L264.258 1.41261ZM249.832 31.9062L250.122 31.9826L250.122 31.9823L249.832 31.9062ZM247.556 41.7249L247.262 41.6662L247.157 42.1914L247.659 42.0064L247.556 41.7249ZM255.434 35.7447L255.577 35.4812L255.32 35.3411L255.174 35.5953L255.434 35.7447ZM256.392 36.266L256.65 36.4195L256.81 36.1515L256.536 36.0025L256.392 36.266ZM247.338 42.917L247.245 42.6319L247.076 42.6872L247.043 42.8615L247.338 42.917ZM258.776 80.5249L259.069 80.4635L259.008 80.1699L258.714 80.2313L258.776 80.5249ZM258.997 81.5827L259.059 81.8763L259.352 81.8149L259.291 81.5212L258.997 81.5827ZM246.184 43.2859L246.479 43.3401L246.564 42.8748L246.107 42.9959L246.184 43.2859ZM234.584 45.0767L234.563 44.7774L234.386 44.7895L234.311 44.9511L234.584 45.0767ZM222.282 44.1265L222.289 43.8266L222.287 43.8265L222.282 44.1265ZM233.938 44.0227L233.957 44.3221L234.139 44.3106L234.213 44.1445L233.938 44.0227ZM235.122 19.4429L234.931 19.211L234.695 19.4048L234.893 19.6374L235.122 19.4429ZM235.955 18.7589L236.184 18.5652L235.993 18.3394L235.765 18.5269L235.955 18.7589ZM235.071 43.9555L234.795 43.8365L234.599 44.2907L235.093 44.2547L235.071 43.9555ZM246.401 42.0938L246.489 42.3807L246.663 42.3276L246.696 42.149L246.401 42.0938ZM233.451 45.1438L233.722 45.2726L233.937 44.8209L233.437 44.8441L233.451 45.1438ZM222.251 45.1947L222.258 44.8947L222.256 44.8947L222.251 45.1947ZM249.044 31.6994C251.32 23.1243 254.036 15.5566 256.727 10.0238C258.073 7.25652 259.408 5.00779 260.672 3.39836C261.948 1.77508 263.11 0.85527 264.098 0.648496L263.975 0.0612188C262.767 0.314208 261.49 1.38579 260.2 3.0277C258.9 4.68345 257.543 6.97373 256.187 9.76141C253.475 15.3386 250.746 22.945 248.464 31.5454L249.044 31.6994ZM263.743 0.416314L263.965 1.47407L264.552 1.35116L264.33 0.293407L263.743 0.416314ZM264.197 1.11897C263.654 1.23255 263.096 1.56086 262.533 2.04688C261.968 2.53531 261.379 3.19924 260.775 4.01387C259.566 5.64326 258.277 7.90353 256.976 10.6445C254.372 16.1283 251.706 23.5721 249.542 31.8302L250.122 31.9823C252.279 23.7517 254.934 16.3446 257.518 10.9018C258.81 8.17934 260.08 5.95732 261.257 4.37127C261.845 3.57818 262.404 2.95112 262.925 2.50098C263.449 2.04843 263.916 1.79063 264.32 1.70625L264.197 1.11897ZM249.542 31.8299C248.689 35.071 247.926 38.3362 247.262 41.6662L247.85 41.7836C248.512 38.4663 249.272 35.2129 250.122 31.9826L249.542 31.8299ZM247.659 42.0064C251.448 40.6122 254.123 38.6283 255.694 35.8942L255.174 35.5953C253.694 38.1707 251.155 40.0808 247.452 41.4433L247.659 42.0064ZM255.291 36.0083L256.249 36.5296L256.536 36.0025L255.577 35.4812L255.291 36.0083ZM256.135 36.1125C254.389 39.0444 251.484 41.2413 247.245 42.6319L247.432 43.202C251.775 41.7772 254.814 39.503 256.65 36.4195L256.135 36.1125ZM247.043 42.8615C245.111 53.1289 244.401 63.2167 245.92 70.476L246.507 70.3531C245.012 63.2108 245.705 53.2165 247.633 42.9725L247.043 42.8615ZM245.92 70.476C246.778 74.5777 248.283 77.53 250.459 79.2754C252.645 81.0298 255.459 81.5256 258.837 80.8186L258.714 80.2313C255.461 80.9121 252.845 80.421 250.834 78.8074C248.812 77.1848 247.352 74.388 246.507 70.3531L245.92 70.476ZM258.482 80.5864L258.703 81.6441L259.291 81.5212L259.069 80.4635L258.482 80.5864ZM258.936 81.2891C255.38 82.0333 252.472 81.477 250.23 79.707C247.979 77.9293 246.353 74.8906 245.449 70.5745L244.862 70.6974C245.781 75.0874 247.455 78.2798 249.858 80.1779C252.271 82.0835 255.373 82.6476 259.059 81.8763L258.936 81.2891ZM245.449 70.5745C243.955 63.4314 244.615 53.4857 246.479 43.3401L245.889 43.2317C244.021 53.4008 243.343 63.4388 244.862 70.6974L245.449 70.5745ZM246.107 42.9959C245.342 43.1986 244.585 43.3991 243.78 43.5675L243.903 44.1548C244.725 43.9826 245.497 43.7781 246.261 43.5759L246.107 42.9959ZM243.78 43.5675C240.665 44.2194 237.568 44.5718 234.563 44.7774L234.604 45.376C237.627 45.1692 240.753 44.814 243.903 44.1548L243.78 43.5675ZM234.311 44.9511C229.311 55.8065 220.009 66.165 207.729 68.735L207.852 69.3223C220.388 66.6987 229.812 56.1525 234.856 45.2022L234.311 44.9511ZM207.729 68.735C203.56 69.6074 199.932 69.3468 197.207 68.164C194.492 66.9851 192.665 64.8882 192.069 62.0423L191.482 62.1652C192.121 65.2183 194.091 67.465 196.969 68.7144C199.838 69.96 203.599 70.2123 207.852 69.3223L207.729 68.735ZM192.069 62.0423C190.806 56.0034 196.018 47.6365 208.296 45.067L208.173 44.4797C195.716 47.0867 190.124 55.6738 191.482 62.1652L192.069 62.0423ZM208.296 45.067C212.202 44.2495 216.982 44.3429 222.278 44.4265L222.287 43.8265C217.016 43.7434 212.159 43.6454 208.173 44.4797L208.296 45.067ZM222.276 44.4264C225.944 44.5079 229.878 44.5793 233.957 44.3221L233.92 43.7233C229.868 43.9787 225.958 43.908 222.289 43.8266L222.276 44.4264ZM234.213 44.1445C237.432 36.9018 238.677 29.4874 237.552 24.1148L236.965 24.2377C238.054 29.4426 236.854 36.7232 233.664 43.9008L234.213 44.1445ZM237.552 24.1148C237.136 22.1268 236.404 20.4853 235.35 19.2483L234.893 19.6374C235.866 20.779 236.564 22.3202 236.965 24.2377L237.552 24.1148ZM235.312 19.6748L236.145 18.9908L235.765 18.5269L234.931 19.211L235.312 19.6748ZM235.726 18.9525C236.815 20.2412 237.588 21.9377 238.023 24.0164L238.61 23.8935C238.16 21.7411 237.352 19.9465 236.184 18.5652L235.726 18.9525ZM238.023 24.0164C239.121 29.2627 237.929 36.5847 234.795 43.8365L235.346 44.0745C238.507 36.7602 239.743 29.306 238.61 23.8935L238.023 24.0164ZM235.093 44.2547C237.904 44.0498 240.776 43.7049 243.681 43.097L243.558 42.5097C240.686 43.1108 237.842 43.4527 235.049 43.6563L235.093 44.2547ZM243.681 43.097C244.666 42.891 245.602 42.6523 246.489 42.3807L246.314 41.807C245.445 42.0728 244.527 42.3071 243.558 42.5097L243.681 43.097ZM246.696 42.149C247.356 38.6205 248.147 35.1071 249.044 31.6987L248.464 31.546C247.563 34.9685 246.769 38.496 246.107 42.0387L246.696 42.149ZM207.63 68.2645C219.677 65.7435 228.747 55.7405 233.722 45.2726L233.18 45.015C228.249 55.3897 219.301 65.2091 207.507 67.6773L207.63 68.2645ZM233.437 44.8441C229.537 45.0252 225.755 44.9695 222.258 44.8947L222.245 45.4946C225.743 45.5694 229.543 45.6256 233.465 45.4435L233.437 44.8441ZM222.256 44.8947C216.984 44.8115 212.259 44.7288 208.394 45.5374L208.517 46.1247C212.302 45.3328 216.952 45.4111 222.246 45.4946L222.256 44.8947ZM208.394 45.5374C196.391 48.0496 191.274 55.8954 192.54 61.9438L193.127 61.8209C191.958 56.2341 196.681 48.6018 208.517 46.1247L208.394 45.5374ZM192.54 61.9438C193.116 64.6947 194.911 66.7026 197.557 67.8031C200.193 68.8996 203.665 69.0943 207.63 68.2645L207.507 67.6773C203.621 68.4907 200.279 68.2856 197.787 67.2491C195.305 66.2168 193.658 64.3589 193.127 61.8209L192.54 61.9438ZM314.536 34.8837L314.778 34.7055L314.595 34.4586L314.353 34.6465L314.536 34.8837ZM315.188 35.7664L315.372 36.0036L315.604 35.824L315.43 35.5882L315.188 35.7664ZM300.378 38.6536L300.103 38.5329L300.102 38.5361L300.378 38.6536ZM301.087 36.7643L301.377 36.8406L301.529 36.2604L300.974 36.4864L301.087 36.7643ZM297.686 39.3868L297.471 39.1778L297.467 39.1823L297.686 39.3868ZM294.15 43.1844L293.966 43.4214L294.182 43.5895L294.369 43.3888L294.15 43.1844ZM293.288 42.5155L293.037 42.3513L292.885 42.5828L293.104 42.7525L293.288 42.5155ZM292.415 39.768L292.202 39.5567L292.2 39.5593L292.415 39.768ZM286.961 45.1559L286.734 45.3522L286.94 45.5899L287.168 45.3733L286.961 45.1559ZM286.681 44.8323L286.908 44.636L286.876 44.5992L286.834 44.5744L286.681 44.8323ZM286.099 44.487L285.854 44.3143L285.667 44.5794L285.946 44.745L286.099 44.487ZM288.054 36.9863L288.353 37.0133L288.404 36.4495L287.909 36.7239L288.054 36.9863ZM268.527 42.092L268.546 41.7924L268.535 41.7921L268.527 42.092ZM266.008 42.0248L266.005 41.7248L265.555 41.7288L265.732 42.1426L266.008 42.0248ZM261.11 43.9841L261.324 43.7746L261.108 43.5526L260.893 43.7764L261.11 43.9841ZM261.866 44.7599L262.082 44.9685L262.285 44.7591L262.081 44.5504L261.866 44.7599ZM263.207 42.441L262.919 42.5248L263.001 42.8068L263.285 42.7308L263.207 42.441ZM262.904 41.4003L262.843 41.1067L262.526 41.173L262.616 41.4841L262.904 41.4003ZM263.189 41.3407L263.251 41.6346L263.262 41.6316L263.189 41.3407ZM268.558 41.0239L268.571 40.7242L268.57 40.7241L268.558 41.0239ZM287.905 35.8709L288.05 36.1336L288.059 36.1286L288.068 36.1229L287.905 35.8709ZM287.829 42.8086L287.541 42.7235L287.222 43.8009L288.036 43.0258L287.829 42.8086ZM291.659 38.9921L291.869 39.2064L291.874 39.2004L291.659 38.9921ZM295.573 40.0415L295.282 39.9678L295.793 40.2452L295.573 40.0415ZM296.889 38.6195L296.676 38.4081L296.668 38.4157L296.889 38.6195ZM301.401 39.0766L301.676 39.1946L301.679 39.1883L301.401 39.0766ZM314.295 35.0619L314.947 35.9446L315.43 35.5882L314.778 34.7055L314.295 35.0619ZM315.005 35.5293C309.557 39.7501 304.951 41.4666 302.029 42.0782L302.152 42.6655C305.169 42.0341 309.857 40.2767 315.372 36.0036L315.005 35.5293ZM302.029 42.0782C301.415 42.2066 300.959 42.2235 300.639 42.1532C300.333 42.0862 300.163 41.9449 300.07 41.7408C299.969 41.5163 299.94 41.1698 300.033 40.6609C300.126 40.1574 300.331 39.5303 300.654 38.7711L300.102 38.5361C299.77 39.3153 299.547 39.9881 299.443 40.5527C299.341 41.1119 299.349 41.6016 299.524 41.9881C299.708 42.395 300.054 42.6394 300.51 42.7393C300.952 42.836 301.504 42.801 302.152 42.6655L302.029 42.0782ZM300.653 38.7743C301.088 37.7839 301.277 37.2205 301.377 36.8406L300.796 36.6879C300.707 37.027 300.531 37.5592 300.103 38.533L300.653 38.7743ZM300.974 36.4864C300.054 36.8601 298.772 37.8363 297.471 39.1779L297.902 39.5957C299.185 38.2731 300.397 37.3686 301.2 37.0422L300.974 36.4864ZM297.467 39.1823L293.93 42.9799L294.369 43.3888L297.906 39.5913L297.467 39.1823ZM294.333 42.9474L293.472 42.2785L293.104 42.7525L293.966 43.4214L294.333 42.9474ZM293.539 42.6797C294.125 41.7829 294.596 40.5492 294.849 39.5583C294.976 39.064 295.053 38.6101 295.058 38.2769C295.061 38.117 295.048 37.9473 294.989 37.811C294.958 37.7396 294.905 37.6538 294.812 37.5942C294.711 37.5298 294.598 37.5185 294.497 37.5396L294.62 38.1269C294.59 38.1331 294.539 38.1318 294.489 38.1002C294.447 38.0735 294.436 38.0434 294.438 38.0482C294.445 38.0642 294.461 38.1289 294.458 38.2679C294.455 38.5323 294.39 38.9336 294.268 39.4096C294.025 40.3591 293.576 41.5262 293.037 42.3513L293.539 42.6797ZM294.497 37.5396C294.271 37.587 294.096 37.7042 293.796 37.9784C293.495 38.2534 293.023 38.7296 292.202 39.5567L292.628 39.9792C293.456 39.145 293.913 38.6836 294.2 38.4215C294.488 38.1586 294.561 38.1391 294.62 38.1269L294.497 37.5396ZM292.2 39.5593C291.12 40.6752 289.442 42.3827 286.754 44.9385L287.168 45.3733C289.863 42.8108 291.546 41.0973 292.631 39.9766L292.2 39.5593ZM287.188 44.9596L286.908 44.636L286.454 45.0287L286.734 45.3522L287.188 44.9596ZM286.834 44.5744L286.252 44.229L285.946 44.745L286.528 45.0903L286.834 44.5744ZM286.344 44.6597C286.429 44.54 286.514 44.3512 286.598 44.1378C286.684 43.9162 286.779 43.6412 286.878 43.3309C287.075 42.7097 287.293 41.9342 287.498 41.1342C287.908 39.5424 288.28 37.8197 288.353 37.0133L287.755 36.9593C287.687 37.7111 287.327 39.3901 286.917 40.9848C286.713 41.7781 286.499 42.542 286.306 43.1491C286.209 43.4529 286.119 43.7143 286.039 43.9191C285.956 44.132 285.892 44.2597 285.854 44.3143L286.344 44.6597ZM287.909 36.7239C283.742 39.033 279.847 40.563 276.222 41.3217L276.345 41.909C280.042 41.1351 283.994 39.5792 288.199 37.2487L287.909 36.7239ZM276.222 41.3217C272.843 42.0288 270.558 41.9206 268.546 41.7926L268.508 42.3914C270.542 42.5208 272.889 42.6322 276.345 41.909L276.222 41.3217ZM268.535 41.7921C267.653 41.7679 266.859 41.7172 266.005 41.7248L266.01 42.3248C266.852 42.3173 267.607 42.3669 268.519 42.3919L268.535 41.7921ZM265.732 42.1426C265.817 42.3426 265.888 42.5101 265.923 42.6795L266.51 42.5566C266.461 42.3191 266.365 42.0968 266.284 41.907L265.732 42.1426ZM265.923 42.6795C266.04 43.2389 265.957 43.9564 265.705 44.7465C265.455 45.5316 265.047 46.3626 264.546 47.1364C264.044 47.9102 263.454 48.6181 262.847 49.1607C262.235 49.7072 261.627 50.0664 261.09 50.1788L261.213 50.7661C261.896 50.6231 262.597 50.1881 263.246 49.6081C263.9 49.0242 264.523 48.2734 265.049 47.4628C265.575 46.6521 266.008 45.7729 266.277 44.9286C266.544 44.0893 266.657 43.2583 266.51 42.5566L265.923 42.6795ZM261.09 50.1788C260.67 50.2667 260.34 50.1921 260.094 50.0114C259.843 49.8272 259.641 49.5043 259.541 49.0259L258.954 49.1488C259.075 49.7281 259.337 50.1999 259.739 50.495C260.145 50.7934 260.656 50.8826 261.213 50.7661L261.09 50.1788ZM259.541 49.0259C259.404 48.369 259.521 47.499 259.849 46.608C260.174 45.7219 260.696 44.849 261.326 44.1917L260.893 43.7764C260.199 44.5004 259.636 45.4469 259.285 46.401C258.936 47.3501 258.785 48.3411 258.954 49.1488L259.541 49.0259ZM260.895 44.1936L261.652 44.9694L262.081 44.5504L261.324 43.7746L260.895 44.1936ZM261.651 44.5513C261.078 45.1431 260.608 45.9208 260.31 46.6979C260.016 47.4686 259.876 48.2784 260.012 48.9274L260.599 48.8045C260.496 48.3145 260.596 47.6304 260.871 46.9123C261.143 46.2008 261.573 45.4949 262.082 44.9685L261.651 44.5513ZM260.012 48.9274C260.064 49.1768 260.143 49.4216 260.321 49.5775C260.523 49.7555 260.772 49.7543 260.991 49.7084L260.868 49.1211C260.796 49.1362 260.755 49.136 260.735 49.133C260.72 49.1309 260.718 49.1281 260.717 49.1268C260.711 49.1222 260.693 49.1036 260.67 49.0494C260.646 48.9948 260.622 48.9163 260.599 48.8045L260.012 48.9274ZM260.991 49.7084C261.539 49.5937 262.112 49.2116 262.642 48.7159C263.18 48.2139 263.703 47.5673 264.151 46.8755C264.599 46.1837 264.977 45.4374 265.218 44.7324C265.456 44.0353 265.571 43.3437 265.453 42.7779L264.865 42.9008C264.951 43.3114 264.874 43.881 264.65 44.5386C264.428 45.1884 264.074 45.8905 263.648 46.5494C263.221 47.2084 262.728 47.8151 262.233 48.2775C261.731 48.7463 261.256 49.0399 260.868 49.1211L260.991 49.7084ZM265.453 42.7779C265.414 42.5953 265.354 42.4138 265.237 42.2639C265.114 42.1052 264.947 42.0053 264.742 41.9583C264.547 41.9135 264.321 41.9169 264.064 41.9507C263.806 41.9848 263.497 42.0528 263.13 42.1512L263.285 42.7308C263.641 42.6353 263.921 42.5748 264.143 42.5455C264.367 42.516 264.512 42.5211 264.608 42.543C264.693 42.5627 264.734 42.5944 264.763 42.6321C264.799 42.6785 264.835 42.758 264.865 42.9008L265.453 42.7779ZM263.495 42.3572L263.192 41.3165L262.616 41.4841L262.919 42.5248L263.495 42.3572ZM262.966 41.6939L263.251 41.6343L263.128 41.0471L262.843 41.1067L262.966 41.6939ZM263.262 41.6316C265.23 41.1371 266.824 41.257 268.547 41.3237L268.57 40.7241C266.868 40.6582 265.183 40.5302 263.116 41.0498L263.262 41.6316ZM268.545 41.3236C270.562 41.4117 272.788 41.5492 276.123 40.8512L276.001 40.264C272.745 40.9453 270.583 40.8121 268.571 40.7242L268.545 41.3236ZM276.123 40.8512C279.782 40.0856 283.807 38.4714 288.05 36.1336L287.761 35.6081C283.552 37.9268 279.584 39.5141 276.001 40.264L276.123 40.8512ZM288.068 36.1229C288.237 36.0141 288.406 36.0067 288.534 36.0581C288.659 36.1083 288.778 36.2278 288.823 36.4432L289.41 36.3203C289.327 35.9255 289.084 35.6325 288.757 35.5013C288.433 35.3713 288.061 35.4135 287.743 35.6188L288.068 36.1229ZM288.823 36.4432C288.833 36.491 288.839 36.5883 288.832 36.7459C288.824 36.8977 288.806 37.0867 288.777 37.3075C288.719 37.7487 288.62 38.302 288.494 38.9112C288.243 40.1293 287.887 41.5549 287.541 42.7235L288.116 42.8938C288.467 41.7085 288.827 40.2665 289.082 39.0325C289.209 38.4157 289.311 37.8469 289.372 37.386C289.402 37.1557 289.423 36.9487 289.431 36.774C289.439 36.6052 289.436 36.4454 289.41 36.3203L288.823 36.4432ZM288.036 43.0258C289.802 41.3426 291.005 40.0528 291.869 39.2063L291.449 38.7779C290.55 39.659 289.396 40.901 287.622 42.5915L288.036 43.0258ZM291.874 39.2004C292.75 38.2931 293.265 37.7819 293.629 37.4818C293.98 37.193 294.17 37.1169 294.398 37.0691L294.276 36.4818C293.934 36.5533 293.658 36.6811 293.248 37.0186C292.852 37.3447 292.312 37.8822 291.443 38.7839L291.874 39.2004ZM294.398 37.0691C294.709 37.004 294.916 37.0497 295.056 37.1387C295.2 37.2298 295.32 37.3955 295.4 37.6578C295.563 38.1936 295.521 39.0226 295.282 39.9678L295.863 40.1151C296.112 39.1321 296.185 38.1749 295.974 37.4831C295.867 37.1316 295.679 36.8232 295.377 36.632C295.072 36.4386 294.697 36.3937 294.276 36.4818L294.398 37.0691ZM295.793 40.2452L297.109 38.8233L296.668 38.4157L295.352 39.8377L295.793 40.2452ZM297.102 38.8308C297.917 38.0091 298.713 37.3212 299.43 36.8135C300.154 36.3015 300.775 35.9894 301.244 35.8914L301.121 35.3041C300.532 35.4274 299.83 35.7955 299.084 36.3237C298.331 36.8563 297.509 37.5686 296.676 38.4082L297.102 38.8308ZM301.244 35.8914C301.56 35.8252 301.81 36.0059 301.855 36.2212L302.443 36.0983C302.317 35.4999 301.699 35.183 301.121 35.3041L301.244 35.8914ZM301.855 36.2212C301.92 36.528 301.852 36.9507 301.696 37.454C301.542 37.9499 301.321 38.4694 301.122 38.9648L301.679 39.1883C301.871 38.7102 302.105 38.1578 302.269 37.6318C302.429 37.1134 302.54 36.5645 302.443 36.0983L301.855 36.2212ZM301.125 38.9585C300.876 39.54 300.684 40.0007 300.563 40.3561C300.502 40.5341 300.456 40.6938 300.429 40.8344C300.403 40.9721 300.392 41.1117 300.417 41.2414C300.443 41.381 300.513 41.51 300.64 41.6002C300.757 41.6835 300.894 41.7125 301.017 41.721C301.255 41.7376 301.571 41.683 301.93 41.6077L301.807 41.0205C301.435 41.0984 301.201 41.1323 301.058 41.1225C300.991 41.1178 300.979 41.1049 300.988 41.1112C301.006 41.1246 301.008 41.1417 301.006 41.1283C301.001 41.1048 300.999 41.0501 301.019 40.946C301.038 40.8448 301.074 40.7152 301.131 40.5502C301.244 40.2195 301.426 39.7791 301.676 39.1946L301.125 38.9585ZM301.93 41.6077C304.868 40.9931 309.353 39.2775 314.72 35.1209L314.353 34.6465C309.05 38.7529 304.647 40.4262 301.807 41.0205L301.93 41.6077ZM335.092 30.5819L335.333 30.4037L335.148 30.1532L334.905 30.3474L335.092 30.5819ZM335.744 31.4646L335.931 31.6992L336.157 31.5189L335.985 31.2864L335.744 31.4646ZM319.602 39.5563L319.602 39.2563L319.6 39.2563L319.602 39.5563ZM314.381 35.5107L314.678 35.4662L314.677 35.4577L314.675 35.4492L314.381 35.5107ZM314.364 35.4293L314.066 35.4629L314.068 35.4769L314.071 35.4907L314.364 35.4293ZM316.18 37.0027L316.204 36.7037L315.517 36.6488L315.945 37.189L316.18 37.0027ZM319.584 38.456L319.583 38.156L319.578 38.156L319.584 38.456ZM315.439 35.2893L315.141 35.3219L315.144 35.3462L315.15 35.3697L315.439 35.2893ZM334.85 30.7601L335.502 31.6428L335.985 31.2864L335.333 30.4037L334.85 30.7601ZM335.556 31.2301C333.399 32.9507 330.599 34.9621 327.735 36.5421C324.861 38.1276 321.964 39.255 319.602 39.2563L319.602 39.8563C322.123 39.8549 325.131 38.6635 328.025 37.0674C330.928 35.4658 333.757 33.4327 335.931 31.6992L335.556 31.2301ZM319.6 39.2563C316.611 39.2752 314.977 37.4594 314.678 35.4662L314.085 35.5551C314.427 37.844 316.317 39.8771 319.604 39.8563L319.6 39.2563ZM314.675 35.4492L314.658 35.3678L314.071 35.4907L314.088 35.5721L314.675 35.4492ZM314.662 35.3957C314.432 33.3506 315.653 31.0922 318.634 30.4683L318.511 29.8811C315.227 30.5684 313.801 33.1105 314.066 35.4629L314.662 35.3957ZM318.634 30.4683C319.728 30.2394 320.647 30.7944 320.835 31.697L321.423 31.5741C321.152 30.2798 319.858 29.5992 318.511 29.8811L318.634 30.4683ZM320.835 31.697C321.118 33.0473 320.499 34.3339 319.506 35.2818C318.507 36.2355 317.195 36.7828 316.204 36.7037L316.156 37.3017C317.368 37.3986 318.84 36.7473 319.921 35.7158C321.007 34.6786 321.762 33.1937 321.423 31.5741L320.835 31.697ZM315.945 37.189C316.7 38.1419 317.938 38.7879 319.59 38.7559L319.578 38.156C318.1 38.1846 317.045 37.612 316.415 36.8164L315.945 37.189ZM319.585 38.756C321.935 38.7477 324.785 37.6102 327.562 36.0706C330.349 34.5252 333.105 32.55 335.279 30.8164L334.905 30.3474C332.748 32.0679 330.02 34.0218 327.271 35.5459C324.512 37.0758 321.773 38.1483 319.583 38.156L319.585 38.756ZM318.733 30.9388C316.108 31.4881 314.937 33.4583 315.141 35.3219L315.737 35.2566C315.569 33.7162 316.517 32.0155 318.856 31.5261L318.733 30.9388ZM315.15 35.3697C315.234 35.672 315.411 35.9013 315.657 36.0479C315.896 36.1905 316.18 36.2434 316.47 36.2378C317.047 36.2269 317.72 35.985 318.333 35.6032C319.545 34.8492 320.706 33.424 320.365 31.7955L319.778 31.9184C320.041 33.1784 319.143 34.3922 318.016 35.0938C317.46 35.4398 316.893 35.6297 316.459 35.638C316.244 35.642 316.079 35.6013 315.964 35.5326C315.856 35.4679 315.772 35.3681 315.728 35.2089L315.15 35.3697ZM320.365 31.7955C320.216 31.0842 319.477 30.783 318.733 30.9388L318.856 31.5261C319.413 31.4095 319.722 31.6532 319.778 31.9184L320.365 31.7955Z" fill="#55504A" mask="url(#path-1-outside-1_2_976)"/>
</svg>
